<svg width="25" height="22" viewBox="0 0 25 22" xmlns="http://www.w3.org/2000/svg">
    <path
        d="M15.625 14.8438C15.625 15.2754 15.2754 15.625 14.8438 15.625H10.1562C9.72461 15.625 9.375 15.2754 9.375 14.8438V12.5H0V19.5312C0 20.7813 1.09375 21.875 2.34375 21.875H22.6562C23.9063 21.875 25 20.7813 25 19.5312V12.5H15.625V14.8438ZM22.6562 4.6875H18.75V2.34375C18.75 1.09375 17.6563 0 16.4062 0H8.59375C7.34375 0 6.25 1.09375 6.25 2.34375V4.6875H2.34375C1.09375 4.6875 0 5.78125 0 7.03125V10.9375H25V7.03125C25 5.78125 23.9063 4.6875 22.6562 4.6875ZM15.625 4.6875H9.375V3.125H15.625V4.6875Z"
    />
</svg>