<svg xmlns="http://www.w3.org/2000/svg" fill="none" viewBox="0 0 1482 341">
  <path fill="#F93576" d="M1228.41 0a16.97 16.97 0 0 0-9.49 2.905c-2.81 1.894-5 4.587-6.3 7.737a17.401 17.401 0 0 0-.97 9.96 17.294 17.294 0 0 0 4.68 8.826 17.024 17.024 0 0 0 8.75 4.717c3.31.666 6.75.324 9.87-.98a17.149 17.149 0 0 0 7.67-6.35 17.409 17.409 0 0 0 2.88-9.577c0-4.572-1.8-8.956-5.01-12.189A17.001 17.001 0 0 0 1228.41 0Z"></path>
  <path fill="#FFA310" d="M83.982 118.377c-20.126 4.662-38.557 14.911-53.211 29.589-14.654 14.678-24.946 33.199-29.711 53.47l-.695 2.997h29.312l.521-1.693a83.603 83.603 0 0 1 20.744-34.403 82.59 82.59 0 0 1 34.294-20.6l1.697-.525v-29.516l-2.95.681Z"></path>
  <path fill="#0C142B" d="m1423.7 216.182-28.06-6.926c-20.38-4.962-30.74-15.215-30.74-30.43 0-20.624 20.58-32.94 40.5-32.94 23.14 0 39.42 13.367 40.69 33.271l.16 2.276h28.5v-2.51c-1.43-35.663-29.85-60.548-69.08-60.548-34.06 0-69.27 22.706-69.27 60.762 0 28.971 17.07 47.415 52.22 56.424l27.77 6.926c25.17 5.74 38.17 19.573 36.64 38.913-2.37 15.448-15.04 31.967-43.58 31.967a49.635 49.635 0 0 1-33.26-12.161c-7.18-6.07-11.81-14.655-12.96-24.028l-.22-2.179h-28.54l.14 2.529c1.64 30.838 30.06 62.747 74.84 62.747 19.88 0 37.2-5.74 50.14-16.577 11.92-10.023 19.58-24.278 21.39-39.827 5.36-42.396-28.14-60.218-57.2-67.708"></path>
  <path fill="#0C142B" d="m446.915 152.364-6.923-6.538c-15.858-14.995-35.716-24.985-57.13-28.74a110.54 110.54 0 0 0-63.39 7.609c-19.942 8.718-36.923 23.13-48.851 41.46-11.929 18.331-18.284 39.781-18.284 61.709 0 21.928 6.355 43.378 18.284 61.709 11.928 18.331 28.909 32.742 48.851 41.461a110.54 110.54 0 0 0 63.39 7.608c21.414-3.755 41.272-13.745 57.13-28.74l6.923-6.537v33.776h28.425V118.568h-28.425v33.796Zm0 75.49a84.193 84.193 0 0 1-13.975 46.481c-9.112 13.758-22.062 24.481-37.215 30.813a82.235 82.235 0 0 1-47.91 4.761c-16.085-3.228-30.861-11.196-42.458-22.896-11.596-11.701-19.494-26.608-22.694-42.837a84.364 84.364 0 0 1 4.719-48.338c6.276-15.287 16.905-28.353 30.541-37.546a82.403 82.403 0 0 1 46.069-14.1c21.979.046 43.044 8.876 58.585 24.555 15.541 15.68 24.292 36.933 24.338 59.107Z"></path>
  <path fill="#0C142B" d="m801.089 152.364-6.923-6.538c-15.858-14.995-35.716-24.985-57.129-28.74a110.543 110.543 0 0 0-63.391 7.609c-19.942 8.718-36.923 23.13-48.851 41.46-11.928 18.331-18.284 39.781-18.284 61.709 0 21.928 6.356 43.378 18.284 61.709 11.928 18.331 28.909 32.742 48.851 41.461a110.543 110.543 0 0 0 63.391 7.608c21.413-3.755 41.271-13.745 57.129-28.74l6.923-6.537v33.776h28.444V118.568h-28.444v33.796Zm0 75.49a84.193 84.193 0 0 1-13.975 46.481c-9.112 13.758-22.062 24.481-37.214 30.813a82.238 82.238 0 0 1-47.911 4.761c-16.085-3.228-30.861-11.196-42.457-22.896-11.597-11.701-19.495-26.608-22.694-42.837a84.355 84.355 0 0 1 4.718-48.338c6.276-15.287 16.905-28.353 30.541-37.546a82.404 82.404 0 0 1 46.07-14.1c21.978.046 43.043 8.876 58.584 24.555 15.541 15.68 24.292 36.933 24.338 59.107Z"></path>
  <path fill="#0C142B" d="m898.785 141.159-6.538 4.806V118.57h-28.444v218.573h28.444V210.346c-.018-14.006 5.089-27.526 14.342-37.967 9.253-10.441 22-17.069 35.798-18.612l2.14-.234v-28.737l-2.584.214a84.004 84.004 0 0 0-43.177 16.149"></path>
  <path fill="#0C142B" d="m1148.52 152.364-6.89-6.538c-15.86-14.995-35.71-24.985-57.13-28.74a110.54 110.54 0 0 0-63.39 7.609c-19.94 8.718-36.921 23.13-48.849 41.46-11.929 18.331-18.284 39.781-18.284 61.709 0 21.928 6.355 43.378 18.284 61.709 11.928 18.331 28.909 32.742 48.849 41.461a110.54 110.54 0 0 0 63.39 7.608c21.42-3.755 41.27-13.745 57.13-28.74l6.92-6.537v33.776h28.43V118.568h-28.43l-.03 33.796Zm0 75.49a84.214 84.214 0 0 1-13.98 46.481c-9.11 13.758-22.06 24.481-37.21 30.813a82.245 82.245 0 0 1-47.91 4.761c-16.09-3.228-30.86-11.196-42.46-22.896-11.599-11.701-19.496-26.608-22.696-42.837a84.364 84.364 0 0 1 4.719-48.338c6.276-15.287 16.907-28.353 30.537-37.546a82.414 82.414 0 0 1 46.07-14.1c21.98.046 43.05 8.876 58.59 24.555 15.54 15.68 24.29 36.933 24.34 59.107Z"></path>
  <path fill="#0C142B" d="M1242.53 59.285h-28.43v277.856h28.43V59.285Z"></path>
  <path fill="#0C142B" d="M1308.11 0h-28.42v337.14h28.42V0Z"></path>
  <path fill="#0C142B" d="M538.031 59.285h-28.425v195.4c.09 21.509 8.166 42.203 22.635 58 14.468 15.797 34.279 25.55 55.524 27.336l2.584.214v-28.737l-2.14-.234c-13.8-1.539-26.549-8.165-35.803-18.607-9.254-10.442-14.359-23.965-14.337-37.972V147.208h52.55V118.53h-52.588V59.285Z"></path>
  <path fill="#0C142B" d="m192.361 152.384-6.923-6.557c-14.224-13.474-31.707-22.941-50.699-27.453l-2.931-.7v29.554l1.697.525a82.761 82.761 0 0 1 31.421 18.087 83.68 83.68 0 0 1 20.798 29.863 84.344 84.344 0 0 1-3.329 71.158 83.465 83.465 0 0 1-23.493 27.754 82.577 82.577 0 0 1-32.969 15.021 82.198 82.198 0 0 1-36.17-.57 82.622 82.622 0 0 1-32.489-16.052c-13.101-10.745-22.696-25.219-27.538-41.539l-.5-1.732H0l.656 2.938c5.32 23.401 17.858 44.498 35.81 60.257 20.79 18.198 47.528 27.972 75.046 27.429 27.518-.543 53.858-11.363 73.926-30.367l6.923-6.538v33.777h28.444V59.285h-28.444v93.099Z"></path>
</svg>