<svg width="156" height="85" viewBox="0 0 156 85" fill="none" xmlns="http://www.w3.org/2000/svg">
<mask id="mask0" mask-type="alpha" maskUnits="userSpaceOnUse" x="7" y="25" width="40" height="13">
<path d="M13.1689 25C14.6295 25 15.9096 25.6013 17.1035 26.3949C17.1609 26.433 17.2183 26.4711 17.2757 26.5091L17.3905 26.5851C19.208 27.7851 21.0236 28.8918 23.1559 29.4632C25.4498 30.0779 27.8906 30.1311 30.2057 29.5962C32.5036 29.0653 34.452 27.8974 36.4077 26.6291C37.6331 25.8344 38.9874 25.1035 40.4805 25.0426C40.5657 25.0391 40.6508 25.0374 40.736 25.0374C44.1424 25.0374 46.9046 27.7977 46.9078 31.2035V31.2164L46.9073 31.282C46.8779 33.6828 45.3969 35.8409 43.1784 36.7999C42.0785 37.2753 40.8482 37.4436 39.6629 37.2574C38.4939 37.0738 37.6225 36.5082 36.6863 35.9084L36.6113 35.8604C36.4484 35.7561 36.2832 35.6511 36.114 35.5472C32.8646 33.5521 29.4265 32.162 25.5448 32.4927C23.2686 32.6865 21.0504 33.424 19.1095 34.6286C19.0307 34.6776 18.9518 34.7265 18.873 34.7755C18.4227 35.055 17.9565 35.3101 17.5229 35.6146C16.2186 36.5307 14.8394 37.3435 13.1689 37.3435C9.82345 37.3435 7.09928 34.6809 7 31.3595V30.9839C7.09928 27.6625 9.82345 25 13.1689 25Z" fill="white"/>
</mask>
<g mask="url(#mask0)">
<path fill-rule="evenodd" clip-rule="evenodd" d="M7.00014 72.2764H46.9078V25H7.00014V72.2764Z" fill="url(#paint0_linear)"/>
</g>
<mask id="mask1" mask-type="alpha" maskUnits="userSpaceOnUse" x="7" y="47" width="40" height="14">
<path d="M13.1689 47.6736C15.5457 47.6736 17.6013 49.479 19.5524 50.6285C22.6034 52.4261 26.2704 53.0534 29.7451 52.3684C31.4253 52.0372 33.186 51.4264 34.5917 50.4455C36.1227 49.377 37.7303 48.3403 39.5429 47.825C39.8721 47.7314 40.1439 47.7299 40.4805 47.7161C40.5657 47.7127 40.6508 47.711 40.736 47.711C44.1424 47.711 46.9046 50.4713 46.9078 53.877V53.8869L46.9061 54.0261C46.7993 58.7379 41.4382 61.4843 37.4708 59.0888C36.8925 58.7397 36.3446 58.342 35.7578 58.0064C35.1465 57.6569 34.5222 57.3286 33.9081 56.9824C33.8949 56.9751 33.8817 56.9677 33.8686 56.9604C29.2506 54.381 23.6033 54.5119 19.1095 57.3022C18.3067 57.8006 17.5382 58.3437 16.7497 58.8659C15.9192 59.4158 15.0318 59.8155 14.0418 59.9557C13.8156 59.9878 13.5877 60.0073 13.3593 60.0143H12.9811C9.72207 59.9169 7.09742 57.2922 7 54.0331V53.6575C7.09928 50.3361 9.82345 47.6736 13.1689 47.6736Z" fill="white"/>
</mask>
<g mask="url(#mask1)">
<path fill-rule="evenodd" clip-rule="evenodd" d="M7.00026 60.0142H46.908V12.7378H7.00026V60.0142Z" fill="url(#paint1_linear)"/>
</g>
<mask id="mask2" mask-type="alpha" maskUnits="userSpaceOnUse" x="20" y="36" width="41" height="13">
<path d="M27.0996 36.2407C28.5201 36.2407 29.7641 36.8684 30.9328 37.6067L31.0106 37.6561C31.0624 37.6892 31.114 37.7224 31.1655 37.7557L31.2427 37.8059C31.2684 37.8227 31.294 37.8394 31.3197 37.8563C32.6599 38.7355 34.0173 39.5966 35.5128 40.1837C38.8863 41.5079 42.7273 41.5274 46.111 40.2272C46.6229 40.0305 47.1235 39.8043 47.6094 39.5497C49.8391 38.3815 51.9656 36.2781 54.6668 36.2781C58.0732 36.2781 60.8354 39.0385 60.8385 42.4442V42.4555L60.8377 42.5519C60.7832 45.9132 58.041 48.6216 54.6668 48.6216C54.3498 48.6216 54.0328 48.5976 53.7196 48.5493C53.4142 48.5022 53.1124 48.4321 52.8176 48.3396C52.5278 48.2486 52.2449 48.1361 51.9717 48.0032C51.2399 47.6472 50.5349 47.2021 49.8305 46.7529L49.6543 46.6406C49.1553 46.3223 48.6554 46.0056 48.1454 45.7208C48.0432 45.6637 47.941 45.6066 47.8388 45.5496C47.8256 45.5422 47.8124 45.5349 47.7993 45.5275C43.1814 42.9481 37.534 43.079 33.0403 45.8694C32.9614 45.9184 32.8825 45.9673 32.8037 46.0162C32.6237 46.1279 32.4437 46.2397 32.2637 46.3514C31.9934 46.5192 31.731 46.703 31.4697 46.8895L31.3577 46.9695C30.8354 47.3435 30.3136 47.7204 29.738 47.9931C29.4618 48.124 29.1758 48.2342 28.8831 48.3224C28.5852 48.4123 28.2805 48.4793 27.9725 48.5229C27.6834 48.5639 27.3916 48.5842 27.0996 48.5842C23.7542 48.5842 21.03 45.9217 20.9307 42.6002V42.2247C21.03 38.9032 23.7542 36.2407 27.0996 36.2407Z" fill="white"/>
</mask>
<g mask="url(#mask2)">
<path fill-rule="evenodd" clip-rule="evenodd" d="M20.9308 66.0117H60.8385V18.7354H20.9308V66.0117Z" fill="url(#paint2_linear)"/>
</g>
<path d="M88.7853 37.1682C85.8747 32.1268 80.5361 31.0905 75.9318 33.7487C71.1527 36.508 69.52 41.9577 72.2288 46.6494C74.9207 51.312 80.4152 52.6857 85.8354 49.5564C88.6621 47.9244 90.343 45.7883 90.841 43.286L86.9081 42.0598C86.4187 43.7022 85.51 44.8874 83.8489 45.8464C81.4594 47.226 79.1085 46.9903 77.5442 45.2902L89.4046 38.4426C89.215 38.0469 88.9872 37.5179 88.7853 37.1682ZM77.9463 37.1706C79.9861 35.9928 82.2126 36.417 83.6772 38.2135L75.9549 42.672C75.1145 40.4762 75.8772 38.3651 77.9463 37.1706Z" fill="#232F4F"/>
<path d="M100.309 51.7173C105.726 51.7173 108.856 49.3282 108.856 45.9633C108.856 38.8297 97.9198 41.8244 97.9198 38.7287C97.9198 37.7866 98.9293 37.0463 101.285 37.0463C102.934 37.0463 104.717 37.3828 106.5 38.3922L108.25 34.6572C106.534 33.6477 103.775 33.0757 101.285 33.0757C96.0018 33.0757 92.9061 35.4984 92.9061 38.9306C92.9061 46.1652 103.842 43.1368 103.842 46.0979C103.842 47.1074 102.934 47.7467 100.511 47.7467C98.29 47.7467 95.8336 47.0401 94.2184 45.9969L92.4687 49.7656C94.1511 50.8761 97.2469 51.7173 100.309 51.7173Z" fill="#232F4F"/>
<path d="M120.709 51.7173C126.463 51.7173 130.635 47.8476 130.635 42.3965C130.635 36.9453 126.463 33.0757 120.709 33.0757C114.955 33.0757 110.749 36.9453 110.749 42.3965C110.749 47.8476 114.955 51.7173 120.709 51.7173ZM120.709 47.4102C118.084 47.4102 116.065 45.5258 116.065 42.3965C116.065 39.2671 118.084 37.3828 120.709 37.3828C123.333 37.3828 125.319 39.2671 125.319 42.3965C125.319 45.5258 123.333 47.4102 120.709 47.4102Z" fill="#232F4F"/>
<path d="M140.234 51.7173C145.652 51.7173 148.781 49.3282 148.781 45.9633C148.781 38.8297 137.845 41.8244 137.845 38.7287C137.845 37.7866 138.855 37.0463 141.21 37.0463C142.859 37.0463 144.642 37.3828 146.426 38.3922L148.176 34.6572C146.459 33.6477 143.7 33.0757 141.21 33.0757C135.927 33.0757 132.832 35.4984 132.832 38.9306C132.832 46.1652 143.768 43.1368 143.768 46.0979C143.768 47.1074 142.859 47.7467 140.436 47.7467C138.215 47.7467 135.759 47.0401 134.144 45.9969L132.394 49.7656C134.077 50.8761 137.172 51.7173 140.234 51.7173Z" fill="#232F4F"/>
<defs>
<linearGradient id="paint0_linear" x1="51.5037" y1="25.0106" x2="4.83558" y2="71.5587" gradientUnits="userSpaceOnUse">
<stop stop-color="#7FC7D5"/>
<stop offset="1" stop-color="#7678ED"/>
</linearGradient>
<linearGradient id="paint1_linear" x1="51.5039" y1="12.7484" x2="4.8357" y2="59.2965" gradientUnits="userSpaceOnUse">
<stop stop-color="#7FC7D5"/>
<stop offset="1" stop-color="#7678ED"/>
</linearGradient>
<linearGradient id="paint2_linear" x1="65.4344" y1="18.746" x2="18.7662" y2="65.294" gradientUnits="userSpaceOnUse">
<stop stop-color="#7FC7D5"/>
<stop offset="1" stop-color="#7678ED"/>
</linearGradient>
</defs>
</svg>
