<svg width="20" height="20" viewBox="0 0 20 20" fill="none" xmlns="http://www.w3.org/2000/svg">
  <path
    d="M0 10C0 15.5225 4.47915 20 10 20C15.5241 20 20 15.5225 20 10C20 4.47754 15.5241 -2.38419e-06 10 -2.38419e-06C4.47915 -2.38419e-06 0 4.47754 0 10ZM4.43548 10C4.43548 9.06468 5.19371 8.30645 6.12903 8.30645C7.06436 8.30645 7.82258 9.06468 7.82258 10C7.82258 10.9353 7.06436 11.6935 6.12903 11.6935C5.19371 11.6935 4.43548 10.9353 4.43548 10ZM14.6774 7.74193C14.9446 7.74193 15.1613 7.95859 15.1613 8.22581V11.7742C15.1613 12.0414 14.9446 12.2581 14.6774 12.2581H13.7097C13.4425 12.2581 13.2258 12.0414 13.2258 11.7742V11.2903L10.6452 11.2903V11.7742C10.6452 12.0414 10.4285 12.2581 10.1613 12.2581L9.19355 12.2581C8.92633 12.2581 8.70968 12.0414 8.70968 11.7742V9.19355C8.70968 8.92633 8.92633 8.70968 9.19355 8.70968L13.2258 8.70968V8.22581C13.2258 7.95859 13.4425 7.74193 13.7097 7.74193H14.6774Z"
    fill="#CC241D" />
</svg>