<svg width="23" height="23" viewBox="0 0 23 23" xmlns="http://www.w3.org/2000/svg">
    <path
        d="M11.5 6.00977C14.5762 6.00977 17.1152 8.54883 17.1152 11.625C17.1152 14.75 14.5762 17.2402 11.5 17.2402C8.375 17.2402 5.88477 14.75 5.88477 11.625C5.88477 8.54883 8.375 6.00977 11.5 6.00977ZM11.5 15.2871C13.502 15.2871 15.1133 13.6758 15.1133 11.625C15.1133 9.62305 13.502 8.01172 11.5 8.01172C9.44922 8.01172 7.83789 9.62305 7.83789 11.625C7.83789 13.6758 9.49805 15.2871 11.5 15.2871ZM18.6289 5.81445C18.6289 6.54688 18.043 7.13281 17.3105 7.13281C16.5781 7.13281 15.9922 6.54688 15.9922 5.81445C15.9922 5.08203 16.5781 4.49609 17.3105 4.49609C18.043 4.49609 18.6289 5.08203 18.6289 5.81445ZM22.3398 7.13281C22.4375 8.93945 22.4375 14.3594 22.3398 16.166C22.2422 17.9238 21.8516 19.4375 20.582 20.7559C19.3125 22.0254 17.75 22.416 15.9922 22.5137C14.1855 22.6113 8.76562 22.6113 6.95898 22.5137C5.20117 22.416 3.6875 22.0254 2.36914 20.7559C1.09961 19.4375 0.708984 17.9238 0.611328 16.166C0.513672 14.3594 0.513672 8.93945 0.611328 7.13281C0.708984 5.375 1.09961 3.8125 2.36914 2.54297C3.6875 1.27344 5.20117 0.882812 6.95898 0.785156C8.76562 0.6875 14.1855 0.6875 15.9922 0.785156C17.75 0.882812 19.3125 1.27344 20.582 2.54297C21.8516 3.8125 22.2422 5.375 22.3398 7.13281ZM19.9961 18.0703C20.582 16.6543 20.4355 13.2363 20.4355 11.625C20.4355 10.0625 20.582 6.64453 19.9961 5.17969C19.6055 4.25195 18.873 3.4707 17.9453 3.12891C16.4805 2.54297 13.0625 2.68945 11.5 2.68945C9.88867 2.68945 6.4707 2.54297 5.05469 3.12891C4.07812 3.51953 3.3457 4.25195 2.95508 5.17969C2.36914 6.64453 2.51562 10.0625 2.51562 11.625C2.51562 13.2363 2.36914 16.6543 2.95508 18.0703C3.3457 19.0469 4.07812 19.7793 5.05469 20.1699C6.4707 20.7559 9.88867 20.6094 11.5 20.6094C13.0625 20.6094 16.4805 20.7559 17.9453 20.1699C18.873 19.7793 19.6543 19.0469 19.9961 18.0703Z"
    />
</svg>