<svg id="svg" version="1.1" xmlns="http://www.w3.org/2000/svg" xmlns:xlink="http://www.w3.org/1999/xlink" width="50" height="50" viewBox="0, 0, 400,400"><g id="svgg"><path id="path0" d="M0.000 200.000 L 0.000 400.000 200.000 400.000 L 400.000 400.000 400.000 291.800 C 400.000 189.622,399.912 180.453,398.972 184.700 C 398.547 186.620,397.960 188.156,397.067 189.684 C 396.590 190.500,395.437 192.513,394.504 194.158 C 393.571 195.802,392.623 197.262,392.398 197.401 C 392.172 197.541,391.714 198.227,391.380 198.927 C 391.045 199.627,390.335 200.920,389.801 201.800 C 389.267 202.680,388.418 204.105,387.915 204.967 C 387.412 205.828,386.518 207.358,385.928 208.367 C 385.338 209.375,384.668 210.560,384.438 211.000 C 384.209 211.440,383.124 213.240,382.028 215.000 C 380.932 216.760,379.664 218.875,379.210 219.700 C 378.755 220.525,378.222 221.200,378.024 221.200 C 377.826 221.200,377.549 221.721,377.409 222.359 C 377.269 222.996,376.805 223.834,376.377 224.221 C 375.950 224.607,375.600 225.075,375.600 225.259 C 375.600 226.733,369.012 233.339,365.406 235.479 C 358.312 239.689,353.470 240.549,338.000 240.345 C 325.425 240.179,325.276 240.142,322.711 236.474 C 321.199 234.313,320.780 228.861,322.013 227.392 C 322.336 227.007,322.960 226.006,323.400 225.167 C 324.830 222.439,327.329 218.244,328.680 216.304 C 329.406 215.261,330.000 214.250,330.000 214.057 C 330.000 213.864,330.822 212.481,331.826 210.983 C 332.830 209.486,333.917 207.797,334.242 207.230 C 334.566 206.664,335.266 205.480,335.796 204.600 C 336.327 203.720,336.991 202.550,337.272 202.000 C 337.552 201.450,338.413 200.010,339.185 198.800 C 339.956 197.590,340.904 195.970,341.292 195.200 C 341.679 194.430,343.170 192.000,344.606 189.800 C 346.042 187.600,347.581 185.035,348.027 184.100 C 348.473 183.165,348.989 182.400,349.175 182.400 C 349.361 182.400,349.623 181.963,349.757 181.428 C 349.891 180.893,350.237 180.218,350.524 179.928 C 351.024 179.424,351.543 178.506,353.288 175.044 C 353.720 174.189,354.686 172.616,355.436 171.548 C 356.186 170.481,356.800 169.436,356.800 169.225 C 356.800 169.014,357.250 168.356,357.800 167.762 C 358.350 167.169,358.800 166.356,358.800 165.956 C 358.800 165.556,359.145 165.043,359.567 164.817 C 359.990 164.591,360.454 163.866,360.599 163.206 C 360.744 162.545,361.088 161.869,361.364 161.702 C 361.639 161.536,362.188 160.770,362.582 160.000 C 364.272 156.702,364.617 156.109,365.840 154.400 C 366.549 153.410,367.434 151.835,367.808 150.900 C 368.181 149.965,368.635 149.200,368.816 149.200 C 368.998 149.200,369.266 148.821,369.413 148.359 C 369.721 147.387,371.299 144.893,372.190 143.966 C 372.526 143.618,372.800 143.158,372.800 142.944 C 372.800 142.730,373.250 141.945,373.800 141.200 C 374.350 140.455,374.800 139.511,374.800 139.102 C 374.800 138.694,375.091 137.797,375.448 137.108 C 375.804 136.419,376.240 134.693,376.416 133.274 C 376.917 129.229,379.324 128.727,380.781 132.362 C 381.300 133.656,382.940 136.412,384.900 139.285 C 385.725 140.494,386.400 141.751,386.400 142.079 C 386.400 142.408,386.760 143.002,387.200 143.400 C 387.640 143.798,388.000 144.339,388.000 144.601 C 388.000 144.863,388.380 145.510,388.845 146.039 C 389.309 146.567,390.222 147.900,390.872 149.000 C 391.522 150.100,392.571 151.810,393.202 152.800 C 395.318 156.120,397.200 159.526,397.200 160.033 C 397.200 160.310,397.465 160.830,397.790 161.189 C 398.114 161.547,398.524 162.538,398.701 163.391 C 399.942 169.363,400.000 165.780,400.000 82.633 L 400.000 0.000 200.000 0.000 L 0.000 0.000 0.000 200.000 M357.000 110.113 C 359.647 110.928,362.059 111.959,362.800 112.593 C 363.130 112.875,363.850 113.241,364.400 113.407 C 366.812 114.133,374.438 121.492,375.213 123.840 C 375.807 125.640,375.366 133.452,374.645 133.902 C 374.382 134.066,373.962 134.830,373.711 135.600 C 372.715 138.660,371.371 141.915,370.841 142.553 C 370.533 142.922,369.813 144.164,369.240 145.312 C 368.667 146.461,367.877 147.850,367.485 148.400 C 365.790 150.780,364.793 152.488,364.562 153.410 C 364.425 153.955,364.155 154.400,363.962 154.400 C 363.769 154.400,363.348 155.030,363.026 155.800 C 362.704 156.570,362.285 157.200,362.094 157.200 C 361.904 157.200,361.446 157.785,361.077 158.500 C 360.707 159.215,360.234 160.070,360.026 160.400 C 359.818 160.730,358.616 162.890,357.356 165.200 C 355.275 169.014,353.640 171.200,352.868 171.200 C 352.110 171.200,349.658 167.886,348.228 164.927 C 347.889 164.227,347.411 163.530,347.165 163.379 C 346.919 163.227,346.455 162.539,346.133 161.851 C 345.811 161.163,344.670 159.160,343.596 157.400 C 342.523 155.640,340.869 152.875,339.922 151.255 C 338.975 149.635,337.801 147.655,337.314 146.855 C 336.827 146.055,336.155 144.827,335.820 144.127 C 335.486 143.427,335.034 142.744,334.816 142.610 C 334.339 142.315,329.785 134.629,328.621 132.154 C 328.298 131.469,327.334 129.849,326.477 128.554 C 321.661 121.276,320.932 119.414,321.430 115.661 C 321.744 113.289,323.911 110.621,326.200 109.786 C 328.534 108.935,354.054 109.206,357.000 110.113 M12.984 168.393 C 18.672 171.052,19.507 177.969,14.628 182.009 C 11.481 184.616,4.211 182.829,3.196 179.200 C 1.774 174.117,3.037 170.402,6.825 168.521 C 10.007 166.941,9.884 166.943,12.984 168.393 M73.600 171.997 C 78.667 172.340,87.013 174.044,89.080 175.156 C 89.476 175.369,91.189 176.205,92.888 177.013 C 96.353 178.663,101.433 182.769,103.105 185.271 C 105.532 188.903,106.770 191.030,106.787 191.600 C 106.797 191.930,107.072 192.711,107.397 193.336 C 108.247 194.965,109.200 201.401,109.198 205.496 C 109.194 214.499,106.951 221.059,101.800 227.127 C 100.341 228.846,95.726 232.398,94.352 232.859 C 93.609 233.109,92.730 233.538,92.400 233.813 C 88.568 237.002,77.564 238.796,59.600 239.160 C 53.110 239.292,47.575 239.546,47.300 239.724 C 46.911 239.975,46.800 244.476,46.800 259.995 C 46.800 278.027,46.736 280.006,46.138 280.605 C 45.298 281.445,37.179 281.342,36.319 280.480 C 35.395 279.554,35.571 175.303,36.498 174.625 C 38.276 173.325,43.835 172.391,53.000 171.852 C 62.229 171.310,63.611 171.319,73.600 171.997 M274.010 175.426 C 274.230 176.004,274.400 181.326,274.400 187.603 C 274.400 198.673,274.406 198.759,275.289 199.377 C 276.054 199.913,278.190 200.000,290.558 200.000 C 307.605 200.000,306.400 199.652,306.400 204.582 C 306.400 209.150,307.697 208.800,290.764 208.800 C 277.334 208.800,276.015 208.860,275.216 209.506 L 274.344 210.213 274.518 234.606 C 274.708 261.153,274.721 261.318,277.049 266.223 C 279.810 272.040,287.892 275.063,295.823 273.247 C 299.766 272.343,302.102 271.610,304.205 270.615 C 306.981 269.301,307.131 269.322,307.831 271.100 C 308.155 271.925,308.606 272.929,308.833 273.331 C 310.489 276.265,309.702 278.470,306.600 279.587 C 291.078 285.174,275.892 283.428,269.860 275.363 C 264.059 267.606,263.903 265.988,264.072 215.511 C 264.220 171.303,263.663 176.065,268.800 175.074 C 273.218 174.222,273.561 174.245,274.010 175.426 M50.485 181.565 C 48.531 181.722,47.444 181.998,47.191 182.400 C 46.574 183.378,46.680 228.675,47.300 229.076 C 48.133 229.615,62.977 229.705,69.800 229.212 C 82.095 228.323,91.209 224.397,94.238 218.684 C 94.613 217.978,95.246 216.770,95.645 216.000 C 98.319 210.841,98.299 199.780,95.607 194.800 C 95.191 194.030,94.577 192.840,94.243 192.155 C 93.665 190.971,90.392 187.907,87.800 186.124 C 81.816 182.006,67.177 180.217,50.485 181.565 M159.000 198.740 C 171.602 200.617,183.100 211.262,186.717 224.400 C 188.785 231.913,189.604 244.690,188.358 250.000 C 188.126 250.990,187.785 252.610,187.601 253.600 C 186.353 260.328,182.614 267.453,177.669 272.528 C 172.696 277.630,168.021 280.187,159.600 282.411 C 157.311 283.016,146.295 282.888,144.314 282.234 C 143.371 281.923,141.610 281.456,140.400 281.197 C 139.190 280.937,137.120 280.122,135.800 279.386 C 134.480 278.649,132.761 277.691,131.980 277.256 C 127.163 274.574,121.517 267.214,117.977 259.000 C 115.117 252.362,114.157 233.973,116.350 227.814 C 116.818 226.501,117.200 225.119,117.200 224.741 C 117.200 223.951,119.237 218.736,119.859 217.936 C 120.087 217.641,120.660 216.590,121.132 215.600 C 122.112 213.545,125.555 209.130,127.540 207.381 C 128.278 206.731,129.199 205.909,129.587 205.553 C 130.658 204.573,136.899 200.800,137.450 200.800 C 137.716 200.800,138.804 200.426,139.867 199.968 C 143.717 198.311,152.386 197.754,159.000 198.740 M236.200 198.748 C 246.631 199.990,249.152 202.414,246.045 208.211 C 245.580 209.078,245.200 210.005,245.200 210.270 C 245.200 211.092,244.406 211.295,243.482 210.710 C 238.274 207.408,219.604 206.169,216.470 208.918 C 216.102 209.241,215.421 209.621,214.957 209.762 C 213.822 210.106,210.416 213.506,209.931 214.779 C 207.138 222.098,209.940 227.307,219.079 231.783 C 225.652 235.003,225.931 235.128,230.800 237.030 C 237.488 239.643,243.656 243.107,245.739 245.420 C 250.485 250.691,251.585 253.698,251.587 261.400 C 251.590 269.701,244.863 279.600,239.220 279.600 C 238.857 279.600,238.361 279.799,238.117 280.043 C 237.874 280.286,236.263 280.834,234.537 281.261 C 232.812 281.688,230.770 282.204,230.000 282.409 C 228.259 282.872,212.050 282.875,209.600 282.413 C 206.286 281.788,201.812 280.518,200.600 279.858 C 199.940 279.499,199.121 279.204,198.780 279.202 C 197.240 279.196,196.770 277.434,197.788 275.483 C 198.108 274.869,198.491 273.699,198.638 272.883 C 199.199 269.774,200.635 269.186,203.767 270.783 C 204.612 271.214,206.135 271.686,207.152 271.832 C 208.168 271.979,209.630 272.370,210.400 272.701 C 212.647 273.668,226.869 273.918,228.997 273.028 C 229.875 272.661,231.380 272.184,232.342 271.968 C 240.749 270.084,243.857 258.758,237.679 252.520 C 235.767 250.589,227.316 245.954,224.600 245.346 C 223.940 245.199,222.971 244.745,222.446 244.339 C 221.921 243.933,221.091 243.600,220.600 243.600 C 220.109 243.600,219.279 243.275,218.754 242.878 C 218.229 242.481,216.630 241.664,215.200 241.061 C 202.354 235.649,197.790 229.211,198.627 217.688 C 199.125 210.838,206.594 200.800,211.193 200.800 C 211.441 200.800,212.433 200.441,213.397 200.001 C 217.274 198.235,227.281 197.685,236.200 198.748 M14.711 200.623 L 15.600 201.245 15.600 240.833 L 15.600 280.420 14.574 280.810 C 13.083 281.377,6.268 281.308,5.680 280.720 C 4.984 280.024,4.984 201.176,5.680 200.480 C 6.432 199.728,13.595 199.841,14.711 200.623 M145.000 208.358 C 139.557 210.252,135.111 213.541,132.302 217.753 C 131.697 218.659,130.932 219.752,130.602 220.181 C 130.271 220.611,130.000 221.153,130.000 221.385 C 130.000 221.617,129.550 222.652,129.000 223.685 C 128.450 224.718,128.000 225.846,128.000 226.192 C 128.000 226.537,127.645 227.830,127.211 229.066 C 125.635 233.550,125.758 249.224,127.394 252.388 C 127.727 253.033,128.006 253.974,128.013 254.480 C 128.019 254.986,128.468 256.300,129.009 257.400 C 129.550 258.500,129.994 259.644,129.996 259.942 C 129.998 260.240,130.405 261.003,130.900 261.636 C 131.395 262.269,132.689 263.920,133.776 265.304 C 135.579 267.603,138.320 270.000,139.143 270.000 C 139.326 270.000,139.799 270.356,140.193 270.792 C 140.587 271.228,141.560 271.692,142.355 271.823 C 143.150 271.954,144.643 272.408,145.674 272.831 C 154.178 276.321,167.539 270.845,173.077 261.600 C 176.856 255.293,179.251 240.359,177.664 233.000 C 176.951 229.692,175.554 224.629,175.236 224.201 C 175.072 223.980,174.610 222.900,174.208 221.800 C 172.950 218.349,167.548 212.248,164.400 210.721 C 158.676 207.945,158.912 207.997,152.125 208.040 C 148.646 208.062,145.440 208.205,145.000 208.358 " stroke="none" fill="none" fill-rule="evenodd"></path><path id="path1" d="M377.404 134.900 C 377.255 136.055,376.817 137.630,376.430 138.400 C 376.044 139.170,375.607 140.290,375.459 140.888 C 375.311 141.487,374.833 142.168,374.395 142.403 C 373.891 142.672,373.600 143.240,373.600 143.952 C 373.600 144.570,373.240 145.402,372.800 145.800 C 372.360 146.198,372.000 146.752,372.000 147.031 C 372.000 147.310,371.584 148.047,371.075 148.669 C 370.566 149.291,369.647 150.778,369.033 151.973 C 368.418 153.168,367.603 154.608,367.220 155.173 C 366.838 155.738,366.083 156.920,365.543 157.800 C 365.002 158.680,363.804 160.538,362.880 161.929 C 361.956 163.320,361.200 164.598,361.200 164.767 C 361.200 164.937,360.840 165.402,360.400 165.800 C 359.960 166.198,359.600 166.832,359.600 167.208 C 359.600 167.584,359.260 168.324,358.844 168.853 C 358.429 169.381,357.798 170.440,357.443 171.207 C 357.088 171.973,356.262 173.410,355.607 174.400 C 354.952 175.390,354.251 176.567,354.050 177.016 C 353.848 177.465,353.395 178.073,353.042 178.365 C 352.689 178.658,352.400 179.137,352.400 179.428 C 352.400 179.720,351.950 180.444,351.400 181.038 C 350.850 181.631,350.400 182.427,350.400 182.806 C 350.400 183.185,349.704 184.374,348.853 185.448 C 348.003 186.521,347.172 187.850,347.006 188.400 C 346.841 188.950,346.485 189.670,346.217 190.000 C 345.948 190.330,344.574 192.541,343.164 194.912 C 341.754 197.284,339.970 200.280,339.200 201.571 C 338.430 202.861,337.506 204.250,337.147 204.658 C 336.788 205.066,336.361 205.850,336.198 206.400 C 336.034 206.950,335.563 207.722,335.150 208.116 C 334.738 208.509,334.400 209.011,334.400 209.232 C 334.400 209.452,334.040 210.165,333.600 210.816 C 333.160 211.467,332.448 212.522,332.018 213.160 C 331.587 213.798,331.121 214.775,330.982 215.330 C 330.842 215.886,330.384 216.652,329.964 217.033 C 329.544 217.413,329.200 217.952,329.200 218.231 C 329.200 218.510,328.750 219.273,328.200 219.927 C 327.650 220.581,327.200 221.285,327.200 221.491 C 327.200 221.698,326.498 222.870,325.639 224.096 C 324.780 225.321,323.949 226.746,323.792 227.262 C 323.634 227.778,323.239 228.503,322.914 228.874 C 321.090 230.954,323.173 236.561,326.246 237.845 C 328.285 238.697,352.570 238.643,355.613 237.779 C 356.816 237.438,358.430 237.017,359.200 236.844 C 364.386 235.679,372.707 228.738,375.557 223.200 C 376.293 221.770,377.118 220.330,377.390 220.000 C 377.662 219.670,378.901 217.573,380.142 215.340 C 381.384 213.107,383.120 210.322,384.000 209.151 C 384.880 207.980,385.600 206.805,385.600 206.541 C 385.600 206.277,386.050 205.527,386.600 204.873 C 387.150 204.219,387.600 203.566,387.600 203.421 C 387.600 203.276,388.617 201.412,389.861 199.279 C 391.104 197.145,392.390 194.860,392.719 194.200 C 393.048 193.540,393.540 192.730,393.813 192.400 C 394.086 192.070,394.871 190.736,395.559 189.436 C 396.246 188.136,396.969 186.876,397.165 186.636 C 397.491 186.238,397.907 184.832,398.568 181.900 C 398.704 181.295,399.082 180.800,399.408 180.800 C 400.448 180.800,400.271 167.764,399.226 167.491 C 398.703 167.354,398.362 166.789,398.171 165.744 C 398.016 164.895,397.569 163.570,397.178 162.800 C 396.786 162.030,396.259 160.950,396.006 160.400 C 395.294 158.852,394.304 157.168,392.949 155.200 C 392.267 154.210,391.323 152.680,390.851 151.800 C 390.378 150.920,389.773 149.840,389.506 149.400 C 389.239 148.960,388.582 147.880,388.047 147.000 C 387.512 146.120,386.768 144.947,386.394 144.392 C 386.019 143.838,385.574 142.938,385.406 142.392 C 385.237 141.847,384.852 141.130,384.551 140.800 C 383.374 139.509,382.074 137.694,380.613 135.300 C 378.650 132.085,377.781 131.977,377.404 134.900 " stroke="none" fill="#0f62a5" fill-rule="evenodd"></path><path id="path2" d="M379.170 132.945 C 379.703 133.525,380.220 134.000,380.319 134.000 C 380.713 134.000,379.293 132.232,378.766 132.067 C 378.455 131.970,378.636 132.365,379.170 132.945 M377.293 133.600 C 377.293 134.370,377.375 134.685,377.476 134.300 C 377.576 133.915,377.576 133.285,377.476 132.900 C 377.375 132.515,377.293 132.830,377.293 133.600 M380.408 134.646 C 380.414 134.970,381.304 136.402,383.390 139.446 C 383.825 140.081,384.410 140.744,384.690 140.920 C 384.971 141.096,385.214 141.546,385.232 141.920 C 385.250 142.320,385.345 142.398,385.462 142.110 C 385.571 141.840,384.837 140.609,383.830 139.373 C 382.824 138.138,382.000 136.947,382.000 136.726 C 382.000 136.506,381.640 135.869,381.200 135.309 C 380.760 134.750,380.403 134.451,380.408 134.646 M376.065 138.217 C 375.395 139.688,375.523 140.002,376.247 138.665 C 376.586 138.040,376.788 137.454,376.696 137.363 C 376.605 137.271,376.321 137.656,376.065 138.217 M385.600 143.082 C 385.600 143.341,385.783 143.666,386.006 143.804 C 386.229 143.941,386.781 144.717,387.232 145.527 C 387.684 146.337,388.484 147.720,389.012 148.600 C 389.539 149.480,390.361 150.920,390.840 151.800 C 391.318 152.680,392.267 154.210,392.949 155.200 C 394.304 157.168,395.294 158.852,396.006 160.400 C 396.259 160.950,396.786 162.030,397.178 162.800 C 397.569 163.570,398.014 164.884,398.167 165.721 C 398.319 166.558,398.712 167.345,399.039 167.470 C 399.914 167.806,400.242 167.271,399.515 166.696 C 399.170 166.423,398.661 165.480,398.383 164.600 C 397.369 161.392,392.022 152.108,386.408 143.806 C 385.963 143.149,385.600 142.823,385.600 143.082 M371.615 146.560 C 371.391 147.148,370.756 148.295,370.204 149.108 C 368.902 151.025,368.896 151.733,370.197 149.959 C 371.419 148.293,372.522 145.988,372.235 145.701 C 372.118 145.585,371.839 145.971,371.615 146.560 M368.032 152.851 C 368.014 153.209,367.736 153.721,367.413 153.989 C 366.733 154.554,364.663 158.132,365.213 157.792 C 365.982 157.316,368.461 153.188,368.267 152.706 C 368.134 152.377,368.052 152.428,368.032 152.851 M361.857 162.900 L 361.142 164.200 361.971 163.256 C 362.687 162.440,363.050 161.600,362.686 161.600 C 362.624 161.600,362.251 162.185,361.857 162.900 M7.139 169.483 C 6.427 169.592,5.920 170.028,5.596 170.810 C 5.331 171.450,4.863 172.181,4.557 172.436 C 2.632 174.033,4.629 181.200,6.999 181.200 C 7.343 181.200,7.729 181.470,7.855 181.800 C 8.124 182.501,11.397 182.652,11.810 181.983 C 11.952 181.754,12.763 181.288,13.613 180.948 C 16.102 179.952,16.963 172.899,14.811 171.136 C 14.365 170.771,14.000 170.298,14.000 170.086 C 14.000 169.342,10.222 169.010,7.139 169.483 M357.600 169.878 C 357.600 170.103,357.127 170.988,356.550 171.844 C 355.609 173.237,355.593 173.316,356.396 172.600 C 357.337 171.760,358.171 170.038,357.811 169.678 C 357.695 169.562,357.600 169.652,357.600 169.878 M52.200 173.139 C 50.220 173.283,48.207 173.625,47.726 173.900 C 47.246 174.175,45.896 174.413,44.726 174.429 C 41.383 174.475,38.363 175.013,37.971 175.633 C 37.764 175.960,37.610 198.147,37.606 228.100 L 37.600 280.000 41.600 280.000 L 45.600 280.000 45.606 259.500 C 45.610 247.304,45.766 238.757,45.991 238.400 C 46.311 237.893,48.457 237.769,59.885 237.600 C 69.141 237.463,73.652 237.253,74.200 236.932 C 74.640 236.675,77.060 236.251,79.579 235.990 C 82.097 235.729,84.527 235.282,84.979 234.996 C 85.430 234.711,86.595 234.349,87.567 234.192 C 88.538 234.035,89.888 233.569,90.567 233.155 C 91.245 232.741,92.127 232.402,92.527 232.401 C 92.926 232.401,93.843 231.950,94.564 231.400 C 95.286 230.850,96.077 230.400,96.324 230.400 C 96.570 230.400,96.965 230.040,97.200 229.600 C 97.435 229.160,97.880 228.800,98.187 228.800 C 98.495 228.800,98.857 228.449,98.994 228.020 C 99.130 227.592,99.572 227.136,99.977 227.007 C 100.382 226.879,100.806 226.419,100.919 225.987 C 101.033 225.554,101.372 225.200,101.675 225.200 C 101.977 225.200,102.444 224.705,102.713 224.100 C 102.981 223.495,103.460 222.550,103.775 222.000 C 105.109 219.678,106.108 216.866,106.445 214.483 C 106.643 213.082,106.991 211.590,107.218 211.166 C 107.751 210.170,107.753 200.067,107.221 199.425 C 106.998 199.157,106.635 197.654,106.412 196.085 C 106.189 194.515,105.646 192.639,105.205 191.916 C 104.764 191.192,104.402 190.363,104.401 190.073 C 104.401 189.784,103.950 188.957,103.400 188.236 C 102.850 187.514,102.400 186.626,102.400 186.262 C 102.400 185.898,102.202 185.600,101.960 185.600 C 101.443 185.600,99.200 183.282,99.200 182.748 C 99.200 182.546,98.750 182.209,98.200 182.000 C 97.650 181.791,97.200 181.425,97.200 181.187 C 97.200 180.950,96.435 180.394,95.500 179.952 C 94.565 179.510,92.630 178.534,91.200 177.783 C 89.770 177.032,88.147 176.413,87.594 176.409 C 87.041 176.404,85.961 176.065,85.194 175.655 C 84.427 175.246,82.583 174.781,81.096 174.623 C 79.609 174.465,78.130 174.073,77.809 173.751 C 77.147 173.090,58.912 172.654,52.200 173.139 M353.952 176.100 C 353.690 176.595,353.202 177.450,352.868 178.000 C 352.261 178.999,352.261 178.999,353.058 178.200 C 353.822 177.433,354.974 175.200,354.605 175.200 C 354.508 175.200,354.214 175.605,353.952 176.100 M268.400 176.786 C 267.850 176.947,266.995 177.216,266.500 177.386 L 265.600 177.693 265.600 218.867 C 265.600 252.794,265.696 260.230,266.144 261.120 C 266.444 261.714,266.798 263.424,266.931 264.920 C 267.092 266.721,267.437 267.975,267.954 268.632 C 268.383 269.177,268.857 270.351,269.007 271.240 C 269.157 272.128,269.525 272.950,269.825 273.065 C 270.124 273.180,270.480 273.623,270.616 274.050 C 270.933 275.048,272.552 276.667,273.550 276.984 C 273.977 277.120,274.423 277.484,274.542 277.793 C 274.661 278.103,275.400 278.476,276.185 278.624 C 276.969 278.771,277.755 279.147,277.930 279.460 C 278.113 279.789,279.423 280.211,281.024 280.459 C 282.551 280.695,284.286 281.139,284.880 281.444 C 286.525 282.290,295.832 282.229,296.313 281.370 C 296.540 280.965,297.585 280.618,299.233 280.401 C 300.645 280.216,302.513 279.689,303.385 279.232 C 304.256 278.774,305.336 278.394,305.785 278.386 C 308.025 278.346,309.674 274.974,307.804 274.257 C 307.516 274.146,307.156 273.323,307.005 272.428 C 306.688 270.556,306.677 270.550,305.262 271.550 C 304.678 271.963,303.573 272.437,302.806 272.603 C 302.039 272.769,300.967 273.196,300.423 273.552 C 298.959 274.512,283.371 274.521,282.668 273.563 C 282.410 273.213,281.525 272.704,280.700 272.432 C 279.875 272.160,279.200 271.777,279.200 271.579 C 279.200 271.382,278.660 270.941,278.000 270.600 C 277.340 270.259,276.800 269.736,276.800 269.439 C 276.800 269.141,276.531 268.675,276.203 268.402 C 275.874 268.130,275.419 267.163,275.191 266.253 C 274.963 265.344,274.504 264.108,274.170 263.507 C 272.580 260.644,272.161 209.667,273.714 208.114 C 274.371 207.457,275.645 207.393,289.714 207.312 L 305.000 207.224 305.117 204.425 L 305.234 201.627 289.831 201.514 C 275.665 201.409,274.370 201.343,273.714 200.686 C 273.061 200.032,273.000 198.964,273.000 188.185 L 273.000 176.400 271.200 176.447 C 270.210 176.473,268.950 176.626,268.400 176.786 M70.897 180.091 C 71.009 180.427,72.591 180.650,75.893 180.795 C 79.599 180.959,80.897 181.162,81.463 181.669 C 81.868 182.032,83.050 182.455,84.089 182.608 C 85.128 182.762,86.371 183.228,86.851 183.644 C 87.330 184.060,87.889 184.400,88.093 184.400 C 88.296 184.400,89.255 185.165,90.224 186.100 C 91.192 187.035,92.614 188.340,93.384 189.000 C 94.154 189.660,94.787 190.472,94.792 190.804 C 94.796 191.136,95.144 191.622,95.564 191.885 C 95.984 192.147,96.445 192.895,96.588 193.548 C 96.732 194.200,97.095 194.828,97.396 194.943 C 97.699 195.059,98.055 196.014,98.193 197.077 C 98.330 198.135,98.702 199.591,99.021 200.314 C 99.763 201.997,99.784 207.774,99.056 209.850 C 98.757 210.702,98.386 212.417,98.232 213.659 C 98.052 215.118,97.677 216.168,97.176 216.621 C 96.749 217.008,96.400 217.565,96.400 217.859 C 96.400 218.153,96.040 218.618,95.600 218.893 C 95.160 219.168,94.800 219.726,94.800 220.134 C 94.800 220.541,94.440 220.969,94.000 221.084 C 93.560 221.199,93.196 221.497,93.191 221.747 C 93.187 221.996,92.535 222.740,91.744 223.400 C 90.953 224.060,89.851 225.005,89.294 225.500 C 88.738 225.995,88.113 226.400,87.905 226.400 C 87.697 226.400,87.069 226.760,86.509 227.200 C 85.950 227.640,85.109 228.000,84.640 228.000 C 84.172 228.000,83.134 228.351,82.335 228.779 C 78.292 230.946,47.565 232.227,46.205 230.286 C 45.382 229.111,45.281 181.950,46.100 181.303 C 46.375 181.087,48.754 180.791,51.387 180.648 C 54.019 180.504,56.350 180.210,56.567 179.993 C 57.176 179.384,70.692 179.476,70.897 180.091 M398.568 181.900 C 397.907 184.832,397.491 186.238,397.165 186.636 C 396.969 186.876,396.246 188.136,395.559 189.436 C 394.871 190.736,394.086 192.070,393.813 192.400 C 393.540 192.730,393.048 193.540,392.719 194.200 C 392.390 194.860,391.104 197.145,389.861 199.279 C 388.617 201.412,387.600 203.276,387.600 203.421 C 387.600 203.566,387.150 204.219,386.600 204.873 C 386.050 205.527,385.600 206.277,385.600 206.541 C 385.600 206.805,384.880 207.980,384.000 209.151 C 383.120 210.322,381.384 213.107,380.142 215.340 C 378.901 217.573,377.662 219.670,377.390 220.000 C 377.118 220.330,376.293 221.770,375.557 223.200 C 372.707 228.738,364.386 235.679,359.200 236.844 C 358.430 237.017,356.816 237.438,355.613 237.779 C 353.841 238.282,350.973 238.400,340.500 238.400 C 326.411 238.400,325.717 238.305,324.050 236.149 L 323.161 235.000 323.770 236.259 C 325.050 238.908,326.390 239.168,339.000 239.204 C 355.574 239.252,359.535 238.532,365.782 234.333 C 370.142 231.403,374.946 226.008,377.120 221.600 C 377.391 221.050,378.142 219.790,378.788 218.800 C 379.435 217.810,380.627 215.830,381.437 214.400 C 382.247 212.970,383.380 211.116,383.955 210.279 C 385.071 208.656,385.523 207.905,388.515 202.720 C 389.568 200.894,390.870 198.680,391.409 197.800 C 395.688 190.804,397.939 186.553,398.471 184.466 C 398.713 183.512,399.157 182.638,399.456 182.523 C 400.191 182.241,400.151 180.800,399.408 180.800 C 399.082 180.800,398.704 181.295,398.568 181.900 M347.539 186.700 C 346.994 187.353,346.000 189.382,346.000 189.842 C 346.000 190.463,346.753 189.443,346.987 188.504 C 347.138 187.897,347.546 187.085,347.893 186.700 C 348.240 186.315,348.434 186.000,348.324 186.000 C 348.214 186.000,347.861 186.315,347.539 186.700 M343.250 193.980 C 342.567 195.091,342.087 196.000,342.184 196.000 C 342.507 196.000,344.881 192.347,344.685 192.152 C 344.580 192.046,343.934 192.869,343.250 193.980 M145.400 199.889 C 144.960 199.998,144.402 200.246,144.160 200.442 C 143.919 200.638,142.765 200.979,141.597 201.201 C 139.449 201.608,135.443 203.343,134.471 204.287 C 134.181 204.569,133.721 204.800,133.449 204.800 C 133.178 204.800,132.345 205.250,131.600 205.800 C 130.855 206.350,129.920 206.800,129.522 206.800 C 129.125 206.800,128.800 207.066,128.800 207.391 C 128.800 207.716,128.367 208.265,127.838 208.612 C 127.309 208.958,126.777 209.638,126.655 210.123 C 126.534 210.607,125.706 211.761,124.817 212.686 C 123.928 213.612,123.200 214.532,123.200 214.731 C 123.200 214.929,122.851 215.536,122.425 216.078 C 121.998 216.620,121.532 217.531,121.389 218.103 C 121.245 218.674,120.884 219.236,120.586 219.350 C 120.288 219.464,119.927 220.242,119.785 221.079 C 119.642 221.916,119.211 223.050,118.827 223.600 C 118.430 224.168,118.006 225.802,117.845 227.380 C 117.689 228.910,117.255 230.800,116.881 231.580 C 115.827 233.779,115.897 248.901,116.969 250.513 C 117.444 251.228,117.782 252.657,117.913 254.513 C 118.069 256.712,118.295 257.525,118.859 257.923 C 119.278 258.218,119.600 258.930,119.600 259.561 C 119.600 260.174,119.950 260.993,120.377 261.379 C 120.805 261.766,121.269 262.603,121.409 263.239 C 121.548 263.875,121.874 264.531,122.132 264.698 C 122.667 265.042,124.800 268.099,124.800 268.521 C 124.800 268.958,129.118 273.200,129.563 273.200 C 129.781 273.200,130.104 273.457,130.280 273.771 C 130.692 274.507,133.753 276.726,135.021 277.208 C 135.560 277.413,136.000 277.765,136.000 277.990 C 136.000 278.216,136.336 278.400,136.746 278.400 C 137.156 278.400,137.978 278.782,138.572 279.249 C 139.300 279.822,140.554 280.197,142.425 280.403 C 143.951 280.570,145.643 280.998,146.185 281.354 C 147.580 282.267,157.180 282.293,158.563 281.387 C 159.078 281.050,160.536 280.606,161.804 280.399 C 163.073 280.193,164.401 279.769,164.755 279.456 C 165.110 279.144,165.985 278.765,166.700 278.613 C 167.415 278.461,168.000 278.173,168.000 277.974 C 168.000 277.774,168.585 277.337,169.300 277.002 C 171.444 275.999,175.528 272.838,177.831 270.400 C 178.559 269.630,179.524 268.621,179.977 268.158 C 180.430 267.695,180.800 267.044,180.800 266.712 C 180.800 266.380,181.137 265.679,181.548 265.154 C 181.959 264.629,182.424 263.613,182.581 262.896 C 182.737 262.179,183.117 261.340,183.424 261.033 C 183.732 260.725,184.203 259.602,184.471 258.537 C 184.740 257.472,185.174 256.330,185.437 256.000 C 185.700 255.670,186.040 254.113,186.194 252.540 C 186.347 250.968,186.742 249.168,187.070 248.540 C 187.939 246.880,187.940 234.501,187.071 233.144 C 186.739 232.625,186.341 230.810,186.188 229.111 C 186.027 227.337,185.680 225.833,185.374 225.578 C 185.080 225.334,184.724 224.294,184.584 223.267 C 184.443 222.240,183.992 220.923,183.582 220.340 C 183.171 219.757,182.708 218.773,182.553 218.154 C 182.397 217.534,181.939 216.672,181.535 216.238 C 181.131 215.804,180.800 215.132,180.800 214.744 C 180.800 214.357,180.556 213.896,180.258 213.720 C 179.961 213.544,179.519 213.023,179.278 212.563 C 178.633 211.333,174.442 207.242,173.131 206.564 C 172.509 206.243,172.000 205.818,172.000 205.621 C 172.000 205.423,171.382 205.058,170.626 204.809 C 169.870 204.559,169.195 204.224,169.126 204.063 C 168.903 203.546,164.658 201.657,162.775 201.237 C 161.771 201.013,160.421 200.554,159.775 200.218 C 158.623 199.617,147.538 199.364,145.400 199.889 M218.800 199.851 C 218.470 199.972,217.660 200.307,217.000 200.594 C 216.340 200.882,215.045 201.240,214.123 201.390 C 213.201 201.540,212.243 201.907,211.995 202.206 C 211.748 202.504,211.030 202.862,210.400 203.000 C 209.770 203.138,209.041 203.510,208.779 203.826 C 208.517 204.142,208.077 204.400,207.802 204.400 C 207.236 204.400,204.485 207.272,203.362 209.034 C 202.953 209.676,202.404 210.336,202.141 210.502 C 201.878 210.669,201.540 211.362,201.390 212.044 C 201.241 212.726,200.754 214.107,200.309 215.113 C 199.286 217.425,199.429 224.050,200.536 225.630 C 200.901 226.152,201.200 227.039,201.200 227.602 C 201.200 228.686,202.281 230.317,204.100 231.975 C 204.705 232.527,205.200 233.208,205.200 233.489 C 205.200 233.770,205.464 234.000,205.786 234.000 C 206.108 234.000,206.565 234.360,206.800 234.800 C 207.035 235.240,207.430 235.600,207.676 235.600 C 207.923 235.600,208.681 236.024,209.362 236.542 C 210.043 237.061,211.050 237.622,211.600 237.790 C 212.150 237.957,212.870 238.327,213.200 238.610 C 213.530 238.894,214.546 239.324,215.459 239.567 C 216.371 239.810,217.221 240.277,217.346 240.604 C 217.472 240.932,217.941 241.200,218.387 241.200 C 218.834 241.200,219.541 241.541,219.958 241.958 C 220.374 242.374,221.444 242.838,222.335 242.989 C 223.225 243.139,224.168 243.520,224.429 243.835 C 224.690 244.150,225.589 244.517,226.427 244.651 C 227.265 244.785,228.314 245.233,228.758 245.647 C 229.203 246.061,229.929 246.400,230.371 246.400 C 231.306 246.400,235.882 248.621,236.881 249.560 C 241.650 254.044,242.122 254.943,242.326 259.953 C 242.547 265.402,240.256 270.800,237.722 270.800 C 237.503 270.800,237.018 271.138,236.645 271.550 C 236.271 271.963,235.321 272.405,234.533 272.533 C 233.745 272.661,232.780 273.056,232.388 273.411 C 230.702 274.936,211.587 275.099,208.970 273.610 C 208.294 273.225,206.713 272.781,205.457 272.624 C 203.888 272.428,202.921 272.068,202.364 271.470 L 201.554 270.600 200.817 271.578 C 200.137 272.479,199.200 275.987,199.200 277.629 C 199.200 278.161,199.673 278.390,201.210 278.601 C 202.316 278.754,203.488 279.146,203.816 279.473 C 204.156 279.813,205.954 280.279,208.012 280.560 C 209.992 280.831,211.826 281.266,212.086 281.526 C 212.858 282.298,227.937 282.181,228.803 281.397 C 229.169 281.066,230.773 280.631,232.366 280.431 C 233.959 280.231,235.564 279.802,235.931 279.478 C 236.299 279.154,237.230 278.756,238.000 278.592 C 238.770 278.429,239.829 277.959,240.354 277.548 C 240.879 277.137,241.604 276.800,241.965 276.800 C 242.326 276.800,242.923 276.485,243.291 276.100 C 244.208 275.141,244.843 274.509,245.900 273.508 C 246.395 273.039,246.800 272.458,246.800 272.217 C 246.800 271.975,247.160 271.470,247.600 271.093 C 248.040 270.716,248.400 270.103,248.400 269.730 C 248.400 269.358,248.770 268.288,249.222 267.355 C 251.045 263.588,249.589 251.074,247.119 249.277 C 246.723 248.990,246.400 248.603,246.400 248.418 C 246.400 247.861,244.258 245.600,243.731 245.600 C 243.461 245.600,243.096 245.371,242.920 245.090 C 242.322 244.138,235.674 240.400,234.577 240.400 C 234.319 240.400,233.679 240.066,233.154 239.658 C 232.629 239.250,231.542 238.795,230.739 238.647 C 229.935 238.499,229.186 238.139,229.073 237.847 C 228.961 237.555,228.221 237.211,227.429 237.082 C 226.636 236.954,225.516 236.477,224.940 236.024 C 224.364 235.571,223.473 235.200,222.960 235.200 C 222.448 235.200,221.848 234.864,221.629 234.453 C 221.391 234.010,220.594 233.605,219.666 233.457 C 218.807 233.320,217.882 232.940,217.612 232.614 C 217.341 232.288,216.499 231.905,215.740 231.762 C 209.945 230.675,204.913 218.942,208.361 214.559 C 208.822 213.972,209.200 213.284,209.200 213.029 C 209.200 212.359,212.441 209.334,213.500 209.016 C 213.995 208.868,214.400 208.596,214.400 208.412 C 214.400 208.013,216.604 207.200,217.688 207.200 C 218.111 207.200,218.705 206.952,219.008 206.649 C 220.224 205.434,233.068 205.378,235.000 206.580 C 235.440 206.854,236.920 207.178,238.290 207.300 C 239.786 207.434,241.322 207.857,242.137 208.361 C 244.241 209.661,244.686 209.484,244.997 207.220 C 245.147 206.131,245.524 205.029,245.835 204.771 C 247.331 203.529,245.115 201.766,241.602 201.403 C 240.171 201.255,238.550 200.834,238.000 200.467 C 236.997 199.798,220.389 199.265,218.800 199.851 M338.456 202.017 C 337.735 203.327,337.235 204.400,337.344 204.400 C 337.636 204.400,340.113 199.980,339.926 199.793 C 339.838 199.705,339.177 200.706,338.456 202.017 M6.400 240.800 L 6.400 280.000 10.000 280.000 L 13.600 280.000 13.600 240.800 L 13.600 201.600 10.000 201.600 L 6.400 201.600 6.400 240.800 M155.011 206.542 C 155.445 206.840,157.225 207.188,158.967 207.316 C 161.274 207.485,162.437 207.773,163.251 208.374 C 163.865 208.828,164.636 209.200,164.963 209.200 C 165.291 209.200,166.006 209.605,166.553 210.100 C 167.100 210.595,168.210 211.599,169.020 212.330 C 170.688 213.837,173.200 217.006,173.200 217.603 C 173.200 217.822,173.467 218.000,173.792 218.000 C 174.118 218.000,174.506 218.495,174.653 219.100 C 174.801 219.705,175.234 220.603,175.616 221.097 C 175.997 221.590,176.433 222.650,176.584 223.454 C 176.734 224.258,177.087 225.144,177.367 225.424 C 177.646 225.703,178.110 227.343,178.396 229.066 C 178.683 230.790,179.070 232.502,179.257 232.871 C 179.748 233.840,179.758 243.671,179.269 245.257 C 179.042 245.996,178.670 248.523,178.442 250.874 C 178.162 253.769,177.766 255.639,177.215 256.668 C 176.767 257.504,176.400 258.392,176.400 258.640 C 176.400 258.889,176.065 259.521,175.655 260.046 C 175.245 260.571,174.772 261.450,174.604 262.000 C 174.243 263.181,174.040 263.430,170.735 266.735 C 167.432 270.038,167.023 270.398,165.923 270.974 C 165.416 271.240,164.640 271.656,164.200 271.897 C 159.815 274.302,160.352 274.200,152.068 274.200 C 145.467 274.200,144.268 274.107,143.868 273.565 C 143.611 273.215,142.617 272.825,141.661 272.697 C 140.704 272.570,139.534 272.125,139.061 271.709 C 138.587 271.293,137.705 270.742,137.100 270.485 C 136.495 270.228,136.000 269.833,136.000 269.609 C 136.000 269.384,135.713 269.200,135.363 269.200 C 135.012 269.200,134.633 268.846,134.519 268.413 C 134.406 267.981,133.982 267.521,133.577 267.393 C 133.172 267.264,132.730 266.808,132.594 266.380 C 132.457 265.951,132.209 265.600,132.040 265.600 C 131.530 265.600,129.200 261.743,129.200 260.898 C 129.200 260.463,128.839 259.648,128.397 259.087 C 127.955 258.525,127.481 257.241,127.342 256.233 C 127.204 255.225,126.953 254.400,126.785 254.400 C 126.201 254.400,125.600 251.870,125.600 249.417 C 125.600 247.870,125.381 246.664,125.013 246.176 C 124.192 245.091,124.139 235.514,124.950 234.841 C 125.305 234.547,125.562 233.214,125.674 231.084 C 125.781 229.042,126.101 227.328,126.512 226.591 C 126.878 225.936,127.364 224.654,127.593 223.741 C 127.822 222.829,128.277 221.979,128.604 221.854 C 128.932 221.728,129.200 221.194,129.200 220.666 C 129.200 220.139,129.535 219.279,129.945 218.754 C 130.355 218.229,130.803 217.439,130.941 216.998 C 131.314 215.805,136.148 210.800,136.927 210.800 C 137.297 210.800,137.915 210.519,138.300 210.175 C 140.111 208.558,142.174 207.587,144.315 207.343 C 145.572 207.199,146.955 206.839,147.389 206.541 C 148.451 205.813,153.951 205.814,155.011 206.542 M333.358 210.300 C 332.766 211.345,331.994 212.650,331.642 213.200 C 331.291 213.750,330.777 214.650,330.501 215.200 C 330.224 215.750,329.438 217.100,328.754 218.200 C 327.827 219.690,327.725 220.006,328.355 219.438 C 328.820 219.019,329.200 218.462,329.200 218.200 C 329.200 217.938,329.544 217.413,329.964 217.033 C 330.384 216.652,330.842 215.886,330.982 215.330 C 331.121 214.775,331.587 213.798,332.018 213.160 C 333.843 210.453,334.268 209.763,334.514 209.100 C 334.994 207.811,334.444 208.382,333.358 210.300 M326.640 221.640 C 326.172 222.578,326.155 222.770,326.567 222.427 C 327.059 222.019,327.718 220.400,327.392 220.400 C 327.319 220.400,326.980 220.958,326.640 221.640 M324.433 225.033 C 323.912 225.795,323.560 226.493,323.651 226.585 C 323.743 226.676,324.245 226.128,324.767 225.367 C 325.288 224.605,325.640 223.907,325.549 223.815 C 325.457 223.724,324.955 224.272,324.433 225.033 " stroke="none" fill="#a4aaac" fill-rule="evenodd"></path><path id="path3" d="M326.155 110.815 C 322.540 112.604,320.316 118.904,322.623 120.819 C 322.966 121.104,323.511 121.891,323.834 122.568 C 324.665 124.310,325.374 125.484,326.087 126.297 C 326.426 126.684,327.000 127.540,327.362 128.200 C 327.724 128.860,328.466 130.120,329.011 131.000 C 329.555 131.880,330.271 133.140,330.601 133.800 C 330.931 134.460,331.821 135.990,332.579 137.200 C 333.337 138.410,334.071 139.895,334.210 140.500 C 334.349 141.104,334.764 141.825,335.132 142.101 C 336.035 142.780,337.418 144.797,337.795 145.984 C 337.964 146.517,338.799 147.835,339.651 148.913 C 340.503 149.990,341.200 151.068,341.200 151.307 C 341.200 151.546,341.809 152.655,342.553 153.771 C 343.702 155.495,346.235 159.929,348.362 163.940 C 348.671 164.523,349.081 165.062,349.273 165.137 C 349.465 165.212,349.959 165.932,350.372 166.737 C 350.784 167.542,351.586 168.633,352.154 169.163 L 353.186 170.126 353.703 168.963 C 353.987 168.323,355.115 166.479,356.210 164.864 C 357.304 163.249,358.454 161.449,358.765 160.864 C 359.075 160.279,359.435 159.602,359.565 159.360 C 359.694 159.118,360.326 158.128,360.969 157.160 C 361.613 156.192,362.755 154.230,363.509 152.800 C 364.263 151.370,365.188 149.840,365.565 149.400 C 365.942 148.960,366.856 147.430,367.595 146.000 C 368.335 144.570,369.538 142.525,370.270 141.455 C 371.001 140.385,371.600 139.108,371.600 138.617 C 371.600 138.126,371.960 137.398,372.400 137.000 C 372.840 136.602,373.200 135.946,373.200 135.544 C 373.200 134.562,374.007 131.172,374.447 130.305 C 377.720 123.862,368.750 114.658,355.600 110.965 C 350.704 109.590,328.855 109.478,326.155 110.815 M377.600 132.200 C 377.600 132.530,377.892 132.800,378.249 132.800 C 378.780 132.800,378.808 132.691,378.400 132.200 C 378.126 131.870,377.834 131.600,377.751 131.600 C 377.668 131.600,377.600 131.870,377.600 132.200 M372.871 144.835 C 372.581 145.299,372.421 145.755,372.515 145.849 C 372.793 146.126,373.688 144.864,373.537 144.410 C 373.460 144.180,373.160 144.371,372.871 144.835 M363.355 160.612 C 362.990 161.169,362.770 161.704,362.867 161.800 C 362.963 161.897,363.358 161.441,363.744 160.788 C 364.598 159.342,364.281 159.199,363.355 160.612 M349.423 183.574 C 349.035 184.003,348.795 184.585,348.890 184.869 C 348.998 185.193,349.330 184.974,349.785 184.279 C 350.654 182.953,350.412 182.481,349.423 183.574 M322.032 233.238 C 322.014 233.589,322.405 234.219,322.900 234.638 C 323.792 235.394,323.794 235.393,323.152 234.600 C 322.796 234.160,322.405 233.530,322.284 233.200 C 322.097 232.691,322.058 232.696,322.032 233.238 " stroke="none" fill="#0ebbf1" fill-rule="evenodd"></path><path id="path4" d="M326.200 109.786 C 323.911 110.621,321.744 113.289,321.430 115.661 C 320.932 119.414,321.661 121.276,326.477 128.554 C 327.334 129.849,328.298 131.469,328.621 132.154 C 329.785 134.629,334.339 142.315,334.816 142.610 C 335.034 142.744,335.486 143.427,335.820 144.127 C 336.155 144.827,336.827 146.055,337.314 146.855 C 337.801 147.655,338.975 149.635,339.922 151.255 C 340.869 152.875,342.523 155.640,343.596 157.400 C 344.670 159.160,345.811 161.163,346.133 161.851 C 346.455 162.539,346.919 163.227,347.165 163.379 C 347.411 163.530,347.889 164.227,348.228 164.927 C 349.658 167.886,352.110 171.200,352.868 171.200 C 353.640 171.200,355.275 169.014,357.356 165.200 C 358.616 162.890,359.818 160.730,360.026 160.400 C 360.234 160.070,360.707 159.215,361.077 158.500 C 361.446 157.785,361.904 157.200,362.094 157.200 C 362.285 157.200,362.704 156.570,363.026 155.800 C 363.348 155.030,363.769 154.400,363.962 154.400 C 364.155 154.400,364.425 153.955,364.562 153.410 C 364.793 152.488,365.790 150.780,367.485 148.400 C 367.877 147.850,368.667 146.461,369.240 145.312 C 369.813 144.164,370.533 142.922,370.841 142.553 C 371.371 141.915,372.715 138.660,373.711 135.600 C 373.962 134.830,374.382 134.066,374.645 133.902 C 375.366 133.452,375.807 125.640,375.213 123.840 C 374.438 121.492,366.812 114.133,364.400 113.407 C 363.850 113.241,363.130 112.875,362.800 112.593 C 362.059 111.959,359.647 110.928,357.000 110.113 C 354.054 109.206,328.534 108.935,326.200 109.786 M355.600 110.965 C 368.750 114.658,377.720 123.862,374.447 130.305 C 374.007 131.172,373.200 134.562,373.200 135.544 C 373.200 135.946,372.840 136.602,372.400 137.000 C 371.960 137.398,371.600 138.126,371.600 138.617 C 371.600 139.108,371.001 140.385,370.270 141.455 C 369.538 142.525,368.330 144.570,367.585 146.000 C 366.840 147.430,365.728 149.226,365.115 149.991 C 364.502 150.756,364.000 151.550,364.000 151.756 C 364.000 152.319,360.449 158.261,359.782 158.815 C 359.462 159.081,359.200 159.611,359.200 159.994 C 359.200 160.377,358.705 161.325,358.100 162.101 C 356.848 163.708,354.943 166.690,353.875 168.717 L 353.150 170.093 352.136 169.146 C 351.578 168.626,350.784 167.542,350.372 166.737 C 349.959 165.932,349.465 165.212,349.273 165.137 C 349.081 165.062,348.671 164.523,348.362 163.940 C 346.235 159.929,343.702 155.495,342.553 153.771 C 341.809 152.655,341.200 151.546,341.200 151.307 C 341.200 151.068,340.503 149.990,339.651 148.913 C 338.799 147.835,337.964 146.517,337.795 145.984 C 337.418 144.797,336.035 142.780,335.132 142.101 C 334.764 141.825,334.349 141.104,334.210 140.500 C 334.071 139.895,333.337 138.410,332.579 137.200 C 331.821 135.990,330.931 134.460,330.601 133.800 C 330.271 133.140,329.555 131.880,329.011 131.000 C 328.466 130.120,327.724 128.860,327.362 128.200 C 327.000 127.540,326.426 126.684,326.087 126.297 C 325.374 125.484,324.665 124.310,323.834 122.568 C 323.511 121.891,322.966 121.104,322.623 120.819 C 320.316 118.904,322.540 112.604,326.155 110.815 C 328.855 109.478,350.704 109.590,355.600 110.965 M377.212 130.186 C 376.945 130.508,376.584 131.915,376.411 133.313 C 376.237 134.711,375.804 136.419,375.448 137.108 C 375.091 137.797,374.800 138.694,374.800 139.102 C 374.800 139.511,374.350 140.455,373.800 141.200 C 373.250 141.945,372.800 142.730,372.800 142.944 C 372.800 143.158,372.526 143.618,372.190 143.966 C 371.299 144.893,369.721 147.387,369.413 148.359 C 369.266 148.821,368.998 149.200,368.816 149.200 C 368.635 149.200,368.181 149.965,367.808 150.900 C 367.434 151.835,366.549 153.410,365.840 154.400 C 364.638 156.081,364.278 156.700,362.532 160.100 C 362.165 160.815,361.639 161.536,361.364 161.702 C 361.088 161.869,360.744 162.545,360.599 163.206 C 360.454 163.866,359.990 164.591,359.567 164.817 C 359.145 165.043,358.800 165.556,358.800 165.956 C 358.800 166.356,358.350 167.169,357.800 167.762 C 357.250 168.356,356.800 169.014,356.800 169.225 C 356.800 169.436,356.186 170.481,355.436 171.548 C 354.686 172.616,353.720 174.189,353.288 175.044 C 351.543 178.506,351.024 179.424,350.524 179.928 C 350.237 180.218,349.891 180.893,349.757 181.428 C 349.623 181.963,349.361 182.400,349.175 182.400 C 348.989 182.400,348.473 183.165,348.027 184.100 C 347.581 185.035,346.042 187.600,344.606 189.800 C 343.170 192.000,341.679 194.430,341.292 195.200 C 340.904 195.970,339.956 197.590,339.185 198.800 C 338.413 200.010,337.552 201.450,337.272 202.000 C 336.991 202.550,336.327 203.720,335.796 204.600 C 335.266 205.480,334.566 206.664,334.242 207.230 C 333.917 207.797,332.830 209.486,331.826 210.983 C 330.822 212.481,330.000 213.864,330.000 214.057 C 330.000 214.250,329.406 215.261,328.680 216.304 C 327.329 218.244,324.830 222.439,323.400 225.167 C 322.960 226.006,322.336 227.007,322.013 227.392 C 320.780 228.861,321.199 234.313,322.711 236.474 C 325.276 240.142,325.425 240.179,338.000 240.345 C 353.470 240.549,358.312 239.689,365.406 235.479 C 369.012 233.339,375.600 226.733,375.600 225.259 C 375.600 225.075,375.950 224.607,376.377 224.221 C 376.805 223.834,377.269 222.996,377.409 222.359 C 377.549 221.721,377.816 221.200,378.002 221.200 C 378.188 221.200,378.759 220.488,379.270 219.617 C 380.441 217.622,384.019 211.663,384.682 210.600 C 384.957 210.160,385.556 209.080,386.012 208.200 C 386.469 207.320,387.366 205.790,388.006 204.800 C 388.646 203.810,389.453 202.460,389.799 201.800 C 390.422 200.612,391.262 199.231,393.200 196.208 C 396.258 191.437,398.800 186.482,398.800 185.290 C 398.800 184.832,399.070 184.187,399.400 183.857 C 400.126 183.131,400.192 182.269,399.504 182.499 C 399.232 182.589,398.782 183.467,398.505 184.449 C 397.883 186.649,395.590 190.964,391.409 197.800 C 390.870 198.680,389.568 200.894,388.515 202.720 C 385.523 207.905,385.071 208.656,383.955 210.279 C 383.380 211.116,382.247 212.970,381.437 214.400 C 380.627 215.830,379.435 217.810,378.788 218.800 C 378.142 219.790,377.391 221.050,377.120 221.600 C 374.946 226.008,370.142 231.403,365.782 234.333 C 359.535 238.532,355.574 239.252,339.000 239.204 C 326.437 239.168,325.099 238.911,323.737 236.279 C 323.385 235.597,322.850 234.792,322.548 234.491 C 321.128 233.071,322.441 227.649,325.041 224.197 C 325.539 223.536,326.190 222.546,326.488 221.997 C 326.786 221.449,327.653 219.958,328.415 218.685 C 331.226 213.988,331.592 213.363,332.564 211.600 C 333.110 210.610,334.106 208.990,334.777 208.000 C 335.448 207.010,335.997 206.032,335.998 205.826 C 335.999 205.620,336.325 205.080,336.723 204.626 C 337.723 203.483,346.800 188.266,346.800 187.731 C 346.800 187.493,347.098 187.051,347.462 186.749 C 347.826 186.447,348.369 185.660,348.668 185.000 C 349.270 183.673,349.789 182.792,351.027 181.000 C 351.483 180.340,352.803 178.180,353.961 176.200 C 355.118 174.220,356.589 171.790,357.229 170.800 C 357.868 169.810,358.754 168.280,359.198 167.400 C 359.641 166.520,360.801 164.540,361.775 163.000 C 362.749 161.460,364.279 158.916,365.175 157.347 C 366.071 155.779,367.073 154.272,367.402 153.998 C 367.731 153.725,368.000 153.314,368.000 153.085 C 368.000 152.855,368.810 151.368,369.800 149.779 C 370.790 148.191,371.600 146.719,371.600 146.508 C 371.600 146.297,371.960 145.798,372.400 145.400 C 372.840 145.002,373.200 144.368,373.200 143.992 C 373.200 143.616,373.603 142.796,374.096 142.169 C 375.340 140.587,376.747 136.983,377.050 134.600 C 377.386 131.961,377.601 131.622,378.682 132.029 C 379.471 132.326,380.005 133.095,381.960 136.752 C 382.268 137.329,383.213 138.635,384.060 139.656 C 384.907 140.676,385.600 141.746,385.600 142.034 C 385.600 142.322,386.020 143.197,386.534 143.978 C 393.605 154.735,397.490 161.579,398.681 165.375 C 398.884 166.021,399.264 166.621,399.525 166.708 C 400.190 166.930,400.123 165.333,399.457 165.077 C 399.158 164.962,398.799 164.157,398.660 163.286 C 398.521 162.416,398.136 161.478,397.804 161.203 C 397.472 160.927,397.200 160.438,397.200 160.116 C 397.200 159.536,395.425 156.288,393.202 152.800 C 392.571 151.810,391.522 150.100,390.872 149.000 C 390.222 147.900,389.309 146.567,388.845 146.039 C 388.380 145.510,388.000 144.863,388.000 144.601 C 388.000 144.339,387.640 143.798,387.200 143.400 C 386.760 143.002,386.400 142.408,386.400 142.079 C 386.400 141.751,385.725 140.494,384.900 139.285 C 383.055 136.582,381.348 133.729,380.778 132.400 C 379.945 130.455,377.994 129.244,377.212 130.186 M6.825 168.521 C 3.037 170.402,1.774 174.117,3.196 179.200 C 4.211 182.829,11.481 184.616,14.628 182.009 C 19.507 177.969,18.672 171.052,12.984 168.393 C 9.884 166.943,10.007 166.941,6.825 168.521 M12.750 169.450 C 13.438 169.588,14.000 169.874,14.000 170.086 C 14.000 170.298,14.365 170.771,14.811 171.136 C 16.963 172.899,16.102 179.952,13.613 180.948 C 12.763 181.288,11.952 181.754,11.810 181.983 C 11.397 182.652,8.124 182.501,7.855 181.800 C 7.729 181.470,7.343 181.200,6.999 181.200 C 4.629 181.200,2.632 174.033,4.557 172.436 C 4.863 172.181,5.331 171.450,5.596 170.810 C 5.920 170.028,6.427 169.592,7.139 169.483 C 8.956 169.204,11.446 169.189,12.750 169.450 M53.000 171.852 C 43.835 172.391,38.276 173.325,36.498 174.625 C 35.571 175.303,35.395 279.554,36.319 280.480 C 37.179 281.342,45.298 281.445,46.138 280.605 C 46.736 280.006,46.800 278.027,46.800 259.995 C 46.800 244.476,46.911 239.975,47.300 239.724 C 47.575 239.546,53.110 239.292,59.600 239.160 C 77.564 238.796,88.568 237.002,92.400 233.813 C 92.730 233.538,93.609 233.109,94.352 232.859 C 98.630 231.423,104.225 225.086,107.171 218.340 C 109.625 212.722,109.759 197.864,107.397 193.336 C 107.072 192.711,106.797 191.930,106.787 191.600 C 106.770 191.030,105.532 188.903,103.105 185.271 C 101.433 182.769,96.353 178.663,92.888 177.013 C 91.189 176.205,89.476 175.369,89.080 175.156 C 87.013 174.044,78.667 172.340,73.600 171.997 C 63.611 171.319,62.229 171.310,53.000 171.852 M77.809 173.751 C 78.130 174.073,79.609 174.465,81.096 174.623 C 82.583 174.781,84.427 175.246,85.194 175.655 C 85.961 176.065,87.041 176.404,87.594 176.409 C 88.147 176.413,89.770 177.032,91.200 177.783 C 92.630 178.534,94.565 179.510,95.500 179.952 C 96.435 180.394,97.200 180.950,97.200 181.187 C 97.200 181.425,97.650 181.791,98.200 182.000 C 98.750 182.209,99.200 182.546,99.200 182.748 C 99.200 183.282,101.443 185.600,101.960 185.600 C 102.202 185.600,102.400 185.898,102.400 186.262 C 102.400 186.626,102.850 187.514,103.400 188.236 C 103.950 188.957,104.401 189.784,104.401 190.073 C 104.402 190.363,104.764 191.192,105.205 191.916 C 105.646 192.639,106.189 194.515,106.412 196.085 C 106.635 197.654,106.998 199.157,107.221 199.425 C 107.753 200.067,107.751 210.170,107.218 211.166 C 106.991 211.590,106.643 213.082,106.445 214.483 C 106.108 216.866,105.109 219.678,103.775 222.000 C 103.460 222.550,102.981 223.495,102.713 224.100 C 102.444 224.705,101.977 225.200,101.675 225.200 C 101.372 225.200,101.033 225.554,100.919 225.987 C 100.806 226.419,100.382 226.879,99.977 227.007 C 99.572 227.136,99.130 227.592,98.994 228.020 C 98.857 228.449,98.495 228.800,98.187 228.800 C 97.880 228.800,97.435 229.160,97.200 229.600 C 96.965 230.040,96.570 230.400,96.324 230.400 C 96.077 230.400,95.286 230.850,94.564 231.400 C 93.843 231.950,92.926 232.401,92.527 232.401 C 92.127 232.402,91.245 232.741,90.567 233.155 C 89.888 233.569,88.538 234.035,87.567 234.192 C 86.595 234.349,85.430 234.711,84.979 234.996 C 84.527 235.282,82.097 235.729,79.579 235.990 C 77.060 236.251,74.640 236.675,74.200 236.932 C 73.652 237.253,69.141 237.463,59.885 237.600 C 48.457 237.769,46.311 237.893,45.991 238.400 C 45.766 238.757,45.610 247.304,45.606 259.500 L 45.600 280.000 41.600 280.000 L 37.600 280.000 37.606 228.100 C 37.610 198.147,37.764 175.960,37.971 175.633 C 38.363 175.013,41.383 174.475,44.726 174.429 C 45.896 174.413,47.246 174.175,47.726 173.900 C 49.811 172.707,76.632 172.575,77.809 173.751 M268.800 175.074 C 263.663 176.065,264.220 171.303,264.072 215.511 C 263.903 265.988,264.059 267.606,269.860 275.363 C 275.892 283.428,291.078 285.174,306.600 279.587 C 309.702 278.470,310.489 276.265,308.833 273.331 C 308.606 272.929,308.155 271.925,307.831 271.100 C 307.131 269.322,306.981 269.301,304.205 270.615 C 302.102 271.610,299.766 272.343,295.823 273.247 C 287.892 275.063,279.810 272.040,277.049 266.223 C 274.721 261.318,274.708 261.153,274.518 234.606 L 274.344 210.213 275.216 209.506 C 276.015 208.860,277.334 208.800,290.764 208.800 C 307.697 208.800,306.400 209.150,306.400 204.582 C 306.400 199.652,307.605 200.000,290.558 200.000 C 278.190 200.000,276.054 199.913,275.289 199.377 C 274.406 198.759,274.400 198.673,274.400 187.603 C 274.400 173.148,274.748 173.927,268.800 175.074 M273.000 188.185 C 273.000 198.964,273.061 200.032,273.714 200.686 C 274.370 201.343,275.665 201.409,289.831 201.514 L 305.234 201.627 305.117 204.425 L 305.000 207.224 289.714 207.312 C 275.645 207.393,274.371 207.457,273.714 208.114 C 272.161 209.667,272.580 260.644,274.170 263.507 C 274.504 264.108,274.963 265.344,275.191 266.253 C 275.419 267.163,275.874 268.130,276.203 268.402 C 276.531 268.675,276.800 269.141,276.800 269.439 C 276.800 269.736,277.340 270.259,278.000 270.600 C 278.660 270.941,279.200 271.382,279.200 271.579 C 279.200 271.777,279.875 272.160,280.700 272.432 C 281.525 272.704,282.410 273.213,282.668 273.563 C 283.371 274.521,298.959 274.512,300.423 273.552 C 300.967 273.196,302.039 272.769,302.806 272.603 C 303.573 272.437,304.678 271.963,305.262 271.550 C 306.677 270.550,306.688 270.556,307.005 272.428 C 307.156 273.323,307.516 274.146,307.804 274.257 C 309.674 274.974,308.025 278.346,305.785 278.386 C 305.336 278.394,304.256 278.774,303.385 279.232 C 302.513 279.689,300.645 280.216,299.233 280.401 C 297.585 280.618,296.540 280.965,296.313 281.370 C 295.832 282.229,286.525 282.290,284.880 281.444 C 284.286 281.139,282.551 280.695,281.024 280.459 C 279.423 280.211,278.113 279.789,277.930 279.460 C 277.755 279.147,276.969 278.771,276.185 278.624 C 275.400 278.476,274.661 278.103,274.542 277.793 C 274.423 277.484,273.977 277.120,273.550 276.984 C 272.552 276.667,270.933 275.048,270.616 274.050 C 270.480 273.623,270.124 273.180,269.825 273.065 C 269.525 272.950,269.157 272.128,269.007 271.240 C 268.857 270.351,268.383 269.177,267.954 268.632 C 267.437 267.975,267.092 266.721,266.931 264.920 C 266.798 263.424,266.444 261.714,266.144 261.120 C 265.696 260.230,265.600 252.794,265.600 218.867 L 265.600 177.693 266.500 177.386 C 268.579 176.675,269.495 176.492,271.200 176.447 L 273.000 176.400 273.000 188.185 M56.567 179.993 C 56.350 180.210,54.019 180.504,51.387 180.648 C 48.754 180.791,46.375 181.087,46.100 181.303 C 45.281 181.950,45.382 229.111,46.205 230.286 C 47.565 232.227,78.292 230.946,82.335 228.779 C 83.134 228.351,84.172 228.000,84.640 228.000 C 85.109 228.000,85.950 227.640,86.509 227.200 C 87.069 226.760,87.697 226.400,87.905 226.400 C 88.113 226.400,88.738 225.995,89.294 225.500 C 89.851 225.005,90.953 224.060,91.744 223.400 C 92.535 222.740,93.187 221.996,93.191 221.747 C 93.196 221.497,93.560 221.199,94.000 221.084 C 94.440 220.969,94.800 220.541,94.800 220.134 C 94.800 219.726,95.160 219.168,95.600 218.893 C 96.040 218.618,96.400 218.153,96.400 217.859 C 96.400 217.565,96.749 217.008,97.176 216.621 C 97.677 216.168,98.052 215.118,98.232 213.659 C 98.386 212.417,98.757 210.702,99.056 209.850 C 99.784 207.774,99.763 201.997,99.021 200.314 C 98.702 199.591,98.330 198.135,98.193 197.077 C 98.055 196.014,97.699 195.059,97.396 194.943 C 97.095 194.828,96.732 194.200,96.588 193.548 C 96.445 192.895,95.984 192.147,95.564 191.885 C 95.144 191.622,94.796 191.136,94.792 190.804 C 94.787 190.472,94.154 189.660,93.384 189.000 C 92.614 188.340,91.192 187.035,90.224 186.100 C 89.255 185.165,88.296 184.400,88.093 184.400 C 87.889 184.400,87.330 184.060,86.851 183.644 C 86.371 183.228,85.128 182.762,84.089 182.608 C 83.050 182.455,81.868 182.032,81.463 181.669 C 80.897 181.162,79.599 180.959,75.893 180.795 C 72.591 180.650,71.009 180.427,70.897 180.091 C 70.692 179.476,57.176 179.384,56.567 179.993 M73.600 181.566 C 78.424 182.169,85.226 184.352,87.800 186.124 C 90.392 187.907,93.665 190.971,94.243 192.155 C 94.577 192.840,95.191 194.030,95.607 194.800 C 98.299 199.780,98.319 210.841,95.645 216.000 C 95.246 216.770,94.613 217.978,94.238 218.684 C 92.150 222.622,86.650 225.910,78.400 228.151 C 73.756 229.413,48.960 230.151,47.300 229.076 C 46.680 228.675,46.574 183.378,47.191 182.400 C 47.837 181.375,67.186 180.764,73.600 181.566 M146.000 198.604 C 143.690 198.897,140.930 199.510,139.867 199.968 C 138.804 200.426,137.716 200.800,137.450 200.800 C 136.899 200.800,130.658 204.573,129.587 205.553 C 129.199 205.909,128.278 206.731,127.540 207.381 C 125.555 209.130,122.112 213.545,121.132 215.600 C 120.660 216.590,120.087 217.641,119.859 217.936 C 119.237 218.736,117.200 223.951,117.200 224.741 C 117.200 225.119,116.818 226.501,116.350 227.814 C 114.723 232.385,114.859 247.654,116.590 254.600 C 118.758 263.299,125.963 273.906,131.980 277.256 C 132.761 277.691,134.480 278.649,135.800 279.386 C 137.120 280.122,139.190 280.937,140.400 281.197 C 141.610 281.456,143.371 281.923,144.314 282.234 C 146.295 282.888,157.311 283.016,159.600 282.411 C 168.021 280.187,172.696 277.630,177.669 272.528 C 182.614 267.453,186.353 260.328,187.601 253.600 C 187.785 252.610,188.126 250.990,188.358 250.000 C 189.033 247.126,188.908 234.159,188.171 230.511 C 183.541 207.594,167.982 195.821,146.000 198.604 M219.275 198.627 C 217.006 198.944,214.361 199.562,213.397 200.001 C 212.433 200.441,211.441 200.800,211.193 200.800 C 206.594 200.800,199.125 210.838,198.627 217.688 C 197.790 229.211,202.354 235.649,215.200 241.061 C 216.630 241.664,218.229 242.481,218.754 242.878 C 219.279 243.275,220.109 243.600,220.600 243.600 C 221.091 243.600,221.921 243.933,222.446 244.339 C 222.971 244.745,223.940 245.199,224.600 245.346 C 227.316 245.954,235.767 250.589,237.679 252.520 C 243.857 258.758,240.749 270.084,232.342 271.968 C 231.380 272.184,229.875 272.661,228.997 273.028 C 226.869 273.918,212.647 273.668,210.400 272.701 C 209.630 272.370,208.168 271.979,207.152 271.832 C 206.135 271.686,204.612 271.214,203.767 270.783 C 200.635 269.186,199.199 269.774,198.638 272.883 C 198.491 273.699,198.108 274.869,197.788 275.483 C 196.770 277.434,197.240 279.196,198.780 279.202 C 199.121 279.204,199.940 279.499,200.600 279.858 C 201.812 280.518,206.286 281.788,209.600 282.413 C 212.050 282.875,228.259 282.872,230.000 282.409 C 230.770 282.204,232.812 281.688,234.537 281.261 C 236.263 280.834,237.874 280.286,238.117 280.043 C 238.361 279.799,238.857 279.600,239.220 279.600 C 244.863 279.600,251.590 269.701,251.587 261.400 C 251.585 253.698,250.485 250.691,245.739 245.420 C 243.656 243.107,237.488 239.643,230.800 237.030 C 211.221 229.381,206.343 224.181,209.931 214.779 C 210.416 213.506,213.822 210.106,214.957 209.762 C 215.421 209.621,216.102 209.241,216.470 208.918 C 219.604 206.169,238.274 207.408,243.482 210.710 C 244.406 211.295,245.200 211.092,245.200 210.270 C 245.200 210.005,245.580 209.078,246.045 208.211 C 247.422 205.642,247.550 202.248,246.300 201.429 C 242.396 198.871,228.125 197.391,219.275 198.627 M159.775 200.218 C 160.421 200.554,161.771 201.013,162.775 201.237 C 164.658 201.657,168.903 203.546,169.126 204.063 C 169.195 204.224,169.870 204.559,170.626 204.809 C 171.382 205.058,172.000 205.423,172.000 205.621 C 172.000 205.818,172.509 206.243,173.131 206.564 C 174.442 207.242,178.633 211.333,179.278 212.563 C 179.519 213.023,179.961 213.544,180.258 213.720 C 180.556 213.896,180.800 214.357,180.800 214.744 C 180.800 215.132,181.131 215.804,181.535 216.238 C 181.939 216.672,182.397 217.534,182.553 218.154 C 182.708 218.773,183.171 219.757,183.582 220.340 C 183.992 220.923,184.443 222.240,184.584 223.267 C 184.724 224.294,185.080 225.334,185.374 225.578 C 185.680 225.833,186.027 227.337,186.188 229.111 C 186.341 230.810,186.739 232.625,187.071 233.144 C 187.940 234.501,187.939 246.880,187.070 248.540 C 186.742 249.168,186.347 250.968,186.194 252.540 C 186.040 254.113,185.700 255.670,185.437 256.000 C 185.174 256.330,184.740 257.472,184.471 258.537 C 184.203 259.602,183.732 260.725,183.424 261.033 C 183.117 261.340,182.737 262.179,182.581 262.896 C 182.424 263.613,181.959 264.629,181.548 265.154 C 181.137 265.679,180.800 266.380,180.800 266.712 C 180.800 267.044,180.430 267.695,179.977 268.158 C 179.524 268.621,178.559 269.630,177.831 270.400 C 175.528 272.838,171.444 275.999,169.300 277.002 C 168.585 277.337,168.000 277.774,168.000 277.974 C 168.000 278.173,167.415 278.461,166.700 278.613 C 165.985 278.765,165.110 279.144,164.755 279.456 C 164.401 279.769,163.073 280.193,161.804 280.399 C 160.536 280.606,159.078 281.050,158.563 281.387 C 157.180 282.293,147.580 282.267,146.185 281.354 C 145.643 280.998,143.951 280.570,142.425 280.403 C 140.554 280.197,139.300 279.822,138.572 279.249 C 137.978 278.782,137.156 278.400,136.746 278.400 C 136.336 278.400,136.000 278.216,136.000 277.990 C 136.000 277.765,135.560 277.413,135.021 277.208 C 133.753 276.726,130.692 274.507,130.280 273.771 C 130.104 273.457,129.781 273.200,129.563 273.200 C 129.118 273.200,124.800 268.958,124.800 268.521 C 124.800 268.099,122.667 265.042,122.132 264.698 C 121.874 264.531,121.548 263.875,121.409 263.239 C 121.269 262.603,120.805 261.766,120.377 261.379 C 119.950 260.993,119.600 260.174,119.600 259.561 C 119.600 258.930,119.278 258.218,118.859 257.923 C 118.295 257.525,118.069 256.712,117.913 254.513 C 117.782 252.657,117.444 251.228,116.969 250.513 C 115.897 248.901,115.827 233.779,116.881 231.580 C 117.255 230.800,117.689 228.910,117.845 227.380 C 118.006 225.802,118.430 224.168,118.827 223.600 C 119.211 223.050,119.642 221.916,119.785 221.079 C 119.927 220.242,120.288 219.464,120.586 219.350 C 120.884 219.236,121.245 218.674,121.389 218.103 C 121.532 217.531,121.998 216.620,122.425 216.078 C 122.851 215.536,123.200 214.929,123.200 214.731 C 123.200 214.532,123.928 213.612,124.817 212.686 C 125.706 211.761,126.534 210.607,126.655 210.123 C 126.777 209.638,127.309 208.958,127.838 208.612 C 128.367 208.265,128.800 207.716,128.800 207.391 C 128.800 207.066,129.125 206.800,129.522 206.800 C 129.920 206.800,130.855 206.350,131.600 205.800 C 132.345 205.250,133.178 204.800,133.449 204.800 C 133.721 204.800,134.181 204.569,134.471 204.287 C 135.443 203.343,139.449 201.608,141.597 201.201 C 142.765 200.979,143.919 200.638,144.160 200.442 C 145.418 199.424,157.909 199.244,159.775 200.218 M238.000 200.467 C 238.550 200.834,240.171 201.255,241.602 201.403 C 245.115 201.766,247.331 203.529,245.835 204.771 C 245.524 205.029,245.147 206.131,244.997 207.220 C 244.686 209.484,244.241 209.661,242.137 208.361 C 241.322 207.857,239.786 207.434,238.290 207.300 C 236.920 207.178,235.440 206.854,235.000 206.580 C 233.068 205.378,220.224 205.434,219.008 206.649 C 218.705 206.952,218.111 207.200,217.688 207.200 C 216.604 207.200,214.400 208.013,214.400 208.412 C 214.400 208.596,213.995 208.868,213.500 209.016 C 212.441 209.334,209.200 212.359,209.200 213.029 C 209.200 213.284,208.822 213.972,208.361 214.559 C 204.913 218.942,209.945 230.675,215.740 231.762 C 216.499 231.905,217.341 232.288,217.612 232.614 C 217.882 232.940,218.807 233.320,219.666 233.457 C 220.594 233.605,221.391 234.010,221.629 234.453 C 221.848 234.864,222.448 235.200,222.960 235.200 C 223.473 235.200,224.364 235.571,224.940 236.024 C 225.516 236.477,226.636 236.954,227.429 237.082 C 228.221 237.211,228.961 237.555,229.073 237.847 C 229.186 238.139,229.935 238.499,230.739 238.647 C 231.542 238.795,232.629 239.250,233.154 239.658 C 233.679 240.066,234.319 240.400,234.577 240.400 C 235.674 240.400,242.322 244.138,242.920 245.090 C 243.096 245.371,243.461 245.600,243.731 245.600 C 244.258 245.600,246.400 247.861,246.400 248.418 C 246.400 248.603,246.723 248.990,247.119 249.277 C 249.589 251.074,251.045 263.588,249.222 267.355 C 248.770 268.288,248.400 269.358,248.400 269.730 C 248.400 270.103,248.040 270.716,247.600 271.093 C 247.160 271.470,246.800 271.975,246.800 272.217 C 246.800 272.458,246.395 273.039,245.900 273.508 C 244.843 274.509,244.208 275.141,243.291 276.100 C 242.923 276.485,242.326 276.800,241.965 276.800 C 241.604 276.800,240.879 277.137,240.354 277.548 C 239.829 277.959,238.770 278.429,238.000 278.592 C 237.230 278.756,236.299 279.154,235.931 279.478 C 235.564 279.802,233.959 280.231,232.366 280.431 C 230.773 280.631,229.169 281.066,228.803 281.397 C 227.937 282.181,212.858 282.298,212.086 281.526 C 211.826 281.266,209.992 280.831,208.012 280.560 C 205.954 280.279,204.156 279.813,203.816 279.473 C 203.488 279.146,202.316 278.754,201.210 278.601 C 199.673 278.390,199.200 278.161,199.200 277.629 C 199.200 275.987,200.137 272.479,200.817 271.578 L 201.554 270.600 202.364 271.470 C 202.921 272.068,203.888 272.428,205.457 272.624 C 206.713 272.781,208.294 273.225,208.970 273.610 C 211.587 275.099,230.702 274.936,232.388 273.411 C 232.780 273.056,233.745 272.661,234.533 272.533 C 235.321 272.405,236.271 271.963,236.645 271.550 C 237.018 271.138,237.503 270.800,237.722 270.800 C 240.256 270.800,242.547 265.402,242.326 259.953 C 242.122 254.943,241.650 254.044,236.881 249.560 C 235.882 248.621,231.306 246.400,230.371 246.400 C 229.929 246.400,229.203 246.061,228.758 245.647 C 228.314 245.233,227.265 244.785,226.427 244.651 C 225.589 244.517,224.690 244.150,224.429 243.835 C 224.168 243.520,223.225 243.139,222.335 242.989 C 221.444 242.838,220.374 242.374,219.958 241.958 C 219.541 241.541,218.834 241.200,218.387 241.200 C 217.941 241.200,217.472 240.932,217.346 240.604 C 217.221 240.277,216.371 239.810,215.459 239.567 C 214.546 239.324,213.530 238.894,213.200 238.610 C 212.870 238.327,212.150 237.957,211.600 237.790 C 211.050 237.622,210.043 237.061,209.362 236.542 C 208.681 236.024,207.923 235.600,207.676 235.600 C 207.430 235.600,207.035 235.240,206.800 234.800 C 206.565 234.360,206.108 234.000,205.786 234.000 C 205.464 234.000,205.200 233.770,205.200 233.489 C 205.200 233.208,204.705 232.527,204.100 231.975 C 202.281 230.317,201.200 228.686,201.200 227.602 C 201.200 227.039,200.901 226.152,200.536 225.630 C 199.429 224.050,199.286 217.425,200.309 215.113 C 200.754 214.107,201.241 212.726,201.390 212.044 C 201.540 211.362,201.878 210.669,202.141 210.502 C 202.404 210.336,202.953 209.676,203.362 209.034 C 204.485 207.272,207.236 204.400,207.802 204.400 C 208.077 204.400,208.517 204.142,208.779 203.826 C 209.041 203.510,209.770 203.138,210.400 203.000 C 211.030 202.862,211.748 202.504,211.995 202.206 C 212.243 201.907,213.201 201.540,214.123 201.390 C 215.045 201.240,216.340 200.882,217.000 200.594 C 217.660 200.307,218.470 199.972,218.800 199.851 C 220.389 199.265,236.997 199.798,238.000 200.467 M5.680 200.480 C 4.984 201.176,4.984 280.024,5.680 280.720 C 6.268 281.308,13.083 281.377,14.574 280.810 L 15.600 280.420 15.600 240.833 L 15.600 201.245 14.711 200.623 C 13.595 199.841,6.432 199.728,5.680 200.480 M13.600 240.800 L 13.600 280.000 10.000 280.000 L 6.400 280.000 6.400 240.800 L 6.400 201.600 10.000 201.600 L 13.600 201.600 13.600 240.800 M147.389 206.541 C 146.955 206.839,145.572 207.199,144.315 207.343 C 142.174 207.587,140.111 208.558,138.300 210.175 C 137.915 210.519,137.297 210.800,136.927 210.800 C 136.148 210.800,131.314 215.805,130.941 216.998 C 130.803 217.439,130.355 218.229,129.945 218.754 C 129.535 219.279,129.200 220.139,129.200 220.666 C 129.200 221.194,128.932 221.728,128.604 221.854 C 128.277 221.979,127.822 222.829,127.593 223.741 C 127.364 224.654,126.878 225.936,126.512 226.591 C 126.101 227.328,125.781 229.042,125.674 231.084 C 125.562 233.214,125.305 234.547,124.950 234.841 C 124.139 235.514,124.192 245.091,125.013 246.176 C 125.381 246.664,125.600 247.870,125.600 249.417 C 125.600 251.870,126.201 254.400,126.785 254.400 C 126.953 254.400,127.204 255.225,127.342 256.233 C 127.481 257.241,127.955 258.525,128.397 259.087 C 128.839 259.648,129.200 260.463,129.200 260.898 C 129.200 261.743,131.530 265.600,132.040 265.600 C 132.209 265.600,132.457 265.951,132.594 266.380 C 132.730 266.808,133.172 267.264,133.577 267.393 C 133.982 267.521,134.406 267.981,134.519 268.413 C 134.633 268.846,135.012 269.200,135.363 269.200 C 135.713 269.200,136.000 269.384,136.000 269.609 C 136.000 269.833,136.495 270.228,137.100 270.485 C 137.705 270.742,138.587 271.293,139.061 271.709 C 139.534 272.125,140.704 272.570,141.661 272.697 C 142.617 272.825,143.611 273.215,143.868 273.565 C 144.268 274.107,145.467 274.200,152.068 274.200 C 160.352 274.200,159.815 274.302,164.200 271.897 C 164.640 271.656,165.416 271.240,165.923 270.974 C 167.023 270.398,167.432 270.038,170.735 266.735 C 174.040 263.430,174.243 263.181,174.604 262.000 C 174.772 261.450,175.245 260.571,175.655 260.046 C 176.065 259.521,176.400 258.889,176.400 258.640 C 176.400 258.392,176.767 257.504,177.215 256.668 C 177.766 255.639,178.162 253.769,178.442 250.874 C 178.670 248.523,179.042 245.996,179.269 245.257 C 179.758 243.671,179.748 233.840,179.257 232.871 C 179.070 232.502,178.683 230.790,178.396 229.066 C 178.110 227.343,177.646 225.703,177.367 225.424 C 177.087 225.144,176.734 224.258,176.584 223.454 C 176.433 222.650,175.997 221.590,175.616 221.097 C 175.234 220.603,174.801 219.705,174.653 219.100 C 174.506 218.495,174.118 218.000,173.792 218.000 C 173.467 218.000,173.200 217.822,173.200 217.603 C 173.200 217.006,170.688 213.837,169.020 212.330 C 168.210 211.599,167.100 210.595,166.553 210.100 C 166.006 209.605,165.291 209.200,164.963 209.200 C 164.636 209.200,163.865 208.828,163.251 208.374 C 162.437 207.773,161.274 207.485,158.967 207.316 C 157.225 207.188,155.445 206.840,155.011 206.542 C 153.951 205.814,148.451 205.813,147.389 206.541 M160.725 209.021 C 165.079 210.975,165.812 211.411,167.736 213.188 C 170.603 215.837,173.382 219.535,174.208 221.800 C 174.610 222.900,175.072 223.980,175.236 224.201 C 175.554 224.629,176.951 229.692,177.664 233.000 C 179.251 240.359,176.856 255.293,173.077 261.600 C 167.539 270.845,154.178 276.321,145.674 272.831 C 144.643 272.408,143.150 271.954,142.355 271.823 C 141.560 271.692,140.587 271.228,140.193 270.792 C 139.799 270.356,139.326 270.000,139.143 270.000 C 138.320 270.000,135.579 267.603,133.776 265.304 C 132.689 263.920,131.395 262.269,130.900 261.636 C 130.405 261.003,129.998 260.240,129.996 259.942 C 129.994 259.644,129.550 258.500,129.009 257.400 C 128.468 256.300,128.019 254.986,128.013 254.480 C 128.006 253.974,127.727 253.033,127.394 252.388 C 125.758 249.224,125.635 233.550,127.211 229.066 C 127.645 227.830,128.000 226.537,128.000 226.192 C 128.000 225.846,128.450 224.718,129.000 223.685 C 129.550 222.652,130.000 221.617,130.000 221.385 C 130.000 221.153,130.271 220.611,130.602 220.181 C 130.932 219.752,131.697 218.659,132.302 217.753 C 135.111 213.541,139.557 210.252,145.000 208.358 C 147.405 207.521,158.418 207.986,160.725 209.021 " stroke="none" fill="#acb4c0" fill-rule="evenodd"></path></g></svg>