<svg width="22" height="23" viewBox="0 0 22 23" xmlns="http://www.w3.org/2000/svg">
    <path
        d="M21.8823 3.01587V20.2034C21.8823 21.4978 20.833 22.5471 19.5386 22.5471H2.35107C1.05664 22.5471 0.00732422 21.4978 0.00732422 20.2034V3.01587C0.00732422 1.72144 1.05664 0.672119 2.35107 0.672119H19.5386C20.833 0.672119 21.8823 1.72144 21.8823 3.01587ZM17.5854 3.79712H12.1181C11.0774 3.79712 10.5517 5.05986 11.2895 5.79766L12.8512 7.35952L3.30396 16.9067C3.07515 17.1355 3.07515 17.5065 3.30396 17.7354L4.81904 19.2505C5.0479 19.4793 5.4189 19.4793 5.64771 19.2505L15.1949 9.70332L16.7568 11.2654C17.4906 11.9991 18.7573 11.4839 18.7573 10.4367V4.96899C18.7573 4.32178 18.2327 3.79712 17.5854 3.79712Z"
    />
</svg>