<svg width="23" height="23" viewBox="0 0 23 23" xmlns="http://www.w3.org/2000/svg">
    <path
        d="M20.875 0.6875H2.07617C1.24609 0.6875 0.5625 1.41992 0.5625 2.29883V21C0.5625 21.8789 1.24609 22.5625 2.07617 22.5625H20.875C21.7051 22.5625 22.4375 21.8789 22.4375 21V2.29883C22.4375 1.41992 21.7051 0.6875 20.875 0.6875ZM7.1543 19.4375H3.93164V9.03711H7.1543V19.4375ZM5.54297 7.57227C4.46875 7.57227 3.63867 6.74219 3.63867 5.7168C3.63867 4.69141 4.46875 3.8125 5.54297 3.8125C6.56836 3.8125 7.39844 4.69141 7.39844 5.7168C7.39844 6.74219 6.56836 7.57227 5.54297 7.57227ZM19.3125 19.4375H16.041V14.3594C16.041 13.1875 16.041 11.625 14.3809 11.625C12.6719 11.625 12.4277 12.9434 12.4277 14.3105V19.4375H9.20508V9.03711H12.2812V10.4531H12.3301C12.7695 9.62305 13.8438 8.74414 15.4062 8.74414C18.6777 8.74414 19.3125 10.9414 19.3125 13.7246V19.4375Z"
    />
</svg>