<svg xmlns="http://www.w3.org/2000/svg" viewBox="0 0 657.7 97.7" width="283px" height="42px">
    <path
        d="M142.4 22.7h-4.8c-1.4-8.5-7.9-14.5-17.8-14.5 -6 0-11.4 2-11.4 7.4 0 2.5 1.4 4.8 5.7 5.9l17.1 4.6c7.3 2 13.6 4.3 13.6 13.4 0 10.3-10.3 15.1-20.6 15.1 -6.2 0-12.5-1.8-16.5-5.1l-2.8 4.1h-4.1V34.9h4.6c2.8 8.5 6.5 14.4 18.3 14.4 6.5 0 13.7-2.5 13.7-8.3 0-2.8-1.9-5-5.3-5.9l-21-5.2c-7.7-1.9-10.6-7.8-10.6-12.3 0-9.3 9.3-14.3 19.4-14.3 5.7 0 10.6 1.9 15.8 4.9l2.7-3.8h4.1V22.7z"
        class="a1"></path>
    <path
        d="M183.2 53.3v-5.5c-3.2 4.1-7.6 6.7-14.4 6.7 -6.7 0-13.7-3.4-13.7-10.9V23.2c0-1.4-1.3-1.8-2-1.8h-5.2v-4l14.7-1.2v26.2c0 5.2 4.1 7.1 8.4 7.1 5.8 0 12.3-4.1 12.3-9.1V23.2c0-1.5-1.4-1.8-2.1-1.8h-5.2v-4l14.8-1.2v31.1c0 1.5 1.2 1.8 2 1.8h6v4.3H183.2z"
        class="a1"></path>
    <path
        d="M257.8 53.3v-4.3h4.2c1.3 0 2.5-0.3 2.5-2.1V27.9c0-3.8-3.4-6.3-8.3-6.3 -6.1 0-11.5 4.7-11.5 10.2V47c0 0.9 1 2 2.2 2h5.2v4.3h-21.6v-4.3h4.2c1.5 0 2.4-0.6 2.4-2.2V27.2c0-3.8-4.1-5.6-8.1-5.6 -6 0-11.7 4.1-11.7 9v15.8c0 2 1 2.7 2.7 2.7h4.8v4.3h-22.3v-4.3h4.7c2 0 2.5-0.8 2.5-2.8V23.2c0-1.5-1.3-1.8-2-1.8h-5.8v-4l15.4-1.2v6.5c3.4-4.3 7.9-6.7 14.5-6.7 4.9 0 11.1 2.1 12.7 7.6 2.5-4.2 6.7-7.6 13.9-7.6 6.6 0 13.7 3.3 13.7 10.9V47c0 0.9 1 2 2.3 2h5v4.3H257.8z"
        class="a1"></path>
    <path
        d="M338.6 53.3v-4.3h4.2c1.3 0 2.5-0.3 2.5-2.1V27.9c0-3.8-3.4-6.3-8.3-6.3 -6.1 0-11.5 4.7-11.5 10.2V47c0 0.9 1 2 2.2 2h5.2v4.3h-21.6v-4.3h4.2c1.5 0 2.4-0.6 2.4-2.2V27.2c0-3.8-4.1-5.6-8.1-5.6 -6 0-11.7 4.1-11.7 9v15.8c0 2 1 2.7 2.7 2.7h4.8v4.3h-22.3v-4.3h4.7c2 0 2.5-0.8 2.5-2.8V23.2c0-1.5-1.3-1.8-2-1.8h-5.8v-4l15.4-1.2v6.5c3.4-4.3 7.9-6.7 14.5-6.7 4.9 0 11.1 2.1 12.7 7.6 2.5-4.2 6.7-7.6 13.9-7.6 6.6 0 13.7 3.3 13.7 10.9V47c0 0.9 1 2 2.3 2h5v4.3H338.6z"
        class="a1"></path>
    <path
        d="M370.2 36.1c0 10.2 6.7 13.2 13.7 13.2 11.3 0 13.2-6.5 13.3-8.1h5c-0.3 5.7-6 13.2-19 13.2 -14.6 0-21.6-8.1-21.6-19.1 0-10.9 7.6-19.3 21.1-19.3 14.2 0 20 8.7 20 20.1H370.2zM393.8 31.4c0-5.5-3.2-10.7-11.4-10.7 -7.6 0-12 5-12.3 10.7H393.8z"
        class="a1"></path>
    <path
        d="M405.5 53.3v-4.3h4.6c0.9 0 2.7-0.4 2.7-2.7V23.2c0-1.5-1.1-1.8-1.8-1.8h-6.1v-4l15.4-1.3v8.3c2.2-4.1 6-8.3 13.9-8.3 5.2 0 8.4 2.4 8.4 6.7 0 3.8-2.7 5.5-5.3 5.5 -2.3 0-4.6-1.4-4.6-4.1 0-1.5 1.1-2.9 2.2-3.9 -0.5-0.1-1-0.1-1.5-0.1 -6.2 0-13.2 7-13.2 13.3v12.9c0 2 0.9 2.7 2.7 2.7h7.5v4.3H405.5z"
        class="a1"></path>
    <path
        d="M489.1 54L480 33.4 471 54h-6.4L451 23.3c-0.5-1.1-0.9-2-2.5-2h-3.7v-4.1h19.3v4.1h-3.8c-1 0-1.4 0.6-1.4 1.3 0 0.8 1.1 3.4 9.9 23.1l8.3-18.7c-2.3-5.3-2.6-5.7-5-5.7h-2.5v-4.1h20.9v4.1h-5.8c-0.9 0-1.6 0.3-1.6 1 0 0.8 1.7 4.3 10.2 23.5l9.8-22.1c0.2-0.6 0.3-1 0.3-1.3 0-0.9-0.8-1.1-1.5-1.1h-5.8v-4.1h19.3v4.1h-4c-2 0-3.3 3.8-3.8 5L495.6 54H489.1z"
        class="a1"></path>
    <path
        d="M537 54.5c-14.2 0-20.9-8.3-20.9-19.5 0-10.9 8.8-18.8 21.7-18.8 13 0 20.9 8.3 20.9 19.2C558.7 46.6 550.5 54.5 537 54.5zM550.3 34.9c0-6.4-2.7-14.1-12.8-14.1 -10.6 0-12.9 8.1-12.9 14.6 0 6.7 1.8 14.7 12.5 14.7C547.9 50.1 550.3 41.8 550.3 34.9z"
        class="a1"></path>
    <path
        d="M584.2 54.5c-14.2 0-20.9-8.3-20.9-19.5 0-10.9 8.8-18.8 21.7-18.8 13 0 20.9 8.3 20.9 19.2C605.9 46.6 597.8 54.5 584.2 54.5zM597.5 34.9c0-6.4-2.7-14.1-12.8-14.1 -10.6 0-12.9 8.1-12.9 14.6 0 6.7 1.8 14.7 12.5 14.7C595.2 50.1 597.5 41.8 597.5 34.9z"
        class="a1"></path>
    <path
        d="M643.3 53.3v-5.8c-2.7 3.8-7.4 6.9-13.4 6.9 -10.7 0-19.3-7.1-19.3-18.4 0-14 9.2-20.2 18.7-20.2 5.1 0 11.2 1.8 14.1 6.4V7c0-1.5-1.2-1.8-2-1.8h-5.7v-4L650.6 0v46.4c0 2 1 2.7 2.8 2.7h4.3v4.3H643.3zM643.3 34.4c0-7.9-4-13.9-12.9-13.9 -9.1 0-11.5 7.1-11.5 15.3 0 7.6 3.2 13.8 12.3 13.8C639.1 49.7 643.3 43 643.3 34.4z"
        class="a1"></path>
    <path
        d="M115.3 83.4c-1.7 1.4-4 2-6.7 2h-3.9v11.8h-3.9V69.6h7.8c2.7 0 5 0.5 6.7 2 1.7 1.5 2.7 3.3 2.7 5.9S117 82 115.3 83.4zM112.3 73.8c-1-0.7-2.2-1.1-4-1.1h-3.6v9.4h3.6c1.8 0 3-0.4 4-1 1-0.7 1.7-2 1.7-3.7C113.9 75.8 113.2 74.5 112.3 73.8z"
        class="b1"></path>
    <path
        d="M149.8 97.2h-4.7l-7.2-11.9h-3v11.9h-3.9V69.6h7.8c2.8 0 5 0.6 6.6 1.9 1.6 1.3 2.7 3.3 2.7 5.8 0 4.8-3.4 7-6.3 7.6L149.8 97.2zM142.4 73.8c-1.2-0.9-2.7-1-4.6-1H135v9.4h2.8c1.9 0 3.4-0.1 4.6-1 1.2-0.9 1.8-2 1.8-3.7C144.2 75.8 143.7 74.6 142.4 73.8z"
        class="b1"></path>
    <path
        d="M174.8 97.7c-7.8 0-14.2-5.4-14.2-14.2s6.5-14.2 14.2-14.2c7.8 0 14.2 5.4 14.2 14.2S182.5 97.7 174.8 97.7zM174.8 72.6c-5.6 0-10.3 4-10.3 10.8 0 6.7 4.7 10.8 10.3 10.8 5.6 0 10.3-4.1 10.3-10.8C185.1 76.6 180.4 72.6 174.8 72.6z"
        class="b1"></path>
    <path
        d="M221.8 93.6c-2 1.8-5.5 3.6-10.3 3.6h-8.3V69.6h8.3c4.8 0 8.3 1.8 10.3 3.6 2 1.8 4.3 5 4.3 10.2S223.8 91.8 221.8 93.6zM218.9 75.5c-1.5-1.4-4-2.6-7.4-2.6h-4.4v20.9h4.4c3.4 0 5.8-1.1 7.4-2.6s3.3-3.9 3.3-7.9S220.4 76.9 218.9 75.5z"
        class="b1"></path>
    <path
        d="M261 85.9c0 3.4-0.3 6.2-2.2 8.4 -1.9 2.2-4.6 3.4-8.3 3.4 -3.7 0-6.4-1.2-8.3-3.4 -1.9-2.2-2.2-5-2.2-8.4V69.6h3.9v16c0 2.3 0 4.6 1.3 6.2 1.1 1.5 2.9 2.4 5.3 2.4 2.4 0 4.2-0.9 5.3-2.4 1.2-1.6 1.3-3.9 1.3-6.2v-16h3.9V85.9z"
        class="b1"></path>
    <path
        d="M299.1 93.6c-1.7 1.9-4.8 4.1-10.1 4.1 -8 0-14.1-5.6-14.1-14.2s6.2-14.2 14.1-14.2c5.2 0 8.3 2.2 9.8 3.6l-1.6 3.1c-1.1-1.4-4.2-3.4-8-3.4 -6 0-10.3 4.3-10.3 10.8 0 6.5 4.4 10.8 10.3 10.8 3.6 0 6.4-1.4 8.2-3.4L299.1 93.6z"
        class="b1"></path>
    <path d="M330.2 72.8h-7.8v24.4h-3.9V72.8h-7.8v-3.2h19.4V72.8z" class="b1"></path>
    <path
        d="M356.8 95.5c-1.7 1.4-4 2.2-6.8 2.2 -4.8 0-7.6-3.1-8.9-4.6l2.3-2.6c1.4 1.9 4 4 7 4 3 0 5.4-1.7 5.4-4.6 0-2.9-3.1-4-4.5-4.6 -1.4-0.6-3.4-1.3-4.4-1.8 -0.6-0.3-1.8-0.9-2.8-2 -1-1-1.8-2.6-1.8-4.8 0-2.2 1-4.1 2.5-5.3 1.5-1.3 3.7-2 6.4-2 4.5 0 7.2 2.8 7.9 3.6l-2 2.6c-1.4-1.4-3.4-3-6.1-3s-4.8 1.3-4.8 3.8 1.9 3.5 3.6 4.2l5.1 2.1c0.5 0.2 2.2 1.2 3.1 2.2 0.9 1.1 1.7 2.6 1.7 4.6C359.6 91.9 358.6 94 356.8 95.5z"
        class="b1"></path>
    <path
        d="M13.4 59.8c-7.9-3.2-9.2-10.1-9.2-10.1 11.8 1.3 18.4-3 18.4-3 -3.9-1.3-6.4-8.6-6.4-8.6 11.6 0 19.3-5.1 19.3-5.1 -3.6-0.6-6-6.4-6-6.4 14.9-1.1 25.3-9.4 30.7-15.1V3.2H0v59.6C8.6 62.9 13.4 59.8 13.4 59.8z"
        class="b1"></path>
    <path d="M22.4 76.1C13.6 81.7 5.6 77.3 0 71.9v25.2l23.9-11.2C22.3 81.5 22.4 76.1 22.4 76.1z"
        class="b1"></path>
    <path
        d="M60.2 97.1V80.2c-7.9 2.1-20.4 3.1-26.3-9.9 2.3-6.3 6.5-13.7 13.8-21.1 3-3.1 5.7-6.2 7.9-9.3 0.3-0.1 0.4-0.1 0.4-0.1s-2.8 19.7 4.1 31.3v-49c-2 4.9-4.9 10.6-9.1 16.4 -2.2 3.1-4.9 6.2-7.9 9.3 -7.4 7.4-11.5 14.8-13.8 21.1 -2.5 6.6-1.1 11.7 0.1 14.3l0.1 0L60.2 97.1z"
        class="b1"></path>
</svg>