<svg width="32" height="31" viewBox="0 0 32 31" xmlns="http://www.w3.org/2000/svg">
  <path
    d="M16 10.125C12.8945 10.125 10.375 12.7031 10.375 15.75C10.375 18.8555 12.8945 21.375 16 21.375C19.0469 21.375 21.625 18.8555 21.625 15.75C21.625 12.7031 19.0469 10.125 16 10.125ZM30.4141 14.8711L24.8477 12.1172L26.8398 6.19922C27.0742 5.4375 26.3125 4.67578 25.5508 4.91016L19.6328 6.90234L16.8789 1.33594C16.5273 0.574219 15.4141 0.574219 15.0625 1.33594L12.3086 6.90234L6.39062 4.91016C5.62891 4.67578 4.86719 5.4375 5.10156 6.19922L7.09375 12.1172L1.52734 14.8711C0.765625 15.2227 0.765625 16.3359 1.52734 16.6875L7.09375 19.4414L5.10156 25.3594C4.86719 26.1211 5.62891 26.8828 6.39062 26.6484L12.3086 24.6562L15.0625 30.2227C15.4141 30.9844 16.5273 30.9844 16.8789 30.2227L19.6328 24.6562L25.5508 26.6484C26.3125 26.8828 27.0742 26.1211 26.8398 25.3594L24.8477 19.4414L30.4141 16.6875C31.1758 16.3359 31.1758 15.2227 30.4141 14.8711ZM21.2734 21.082C18.3438 24.0117 13.5977 24.0117 10.668 21.082C7.73828 18.1523 7.73828 13.4062 10.668 10.4766C13.5977 7.54688 18.3438 7.54688 21.2734 10.4766C24.2031 13.4062 24.2031 18.1523 21.2734 21.082Z"
  />
</svg>