<svg width="160" height="58" viewBox="0 0 160 58" fill="none" xmlns="http://www.w3.org/2000/svg">
<g clip-path="url(#clip0)">
<path d="M107.221 28.1516C107.221 24.4782 109.115 22.5235 111.807 22.5235C114.533 22.5235 116.327 24.3434 116.327 27.5113C116.327 29.6008 115.53 31.7577 113.336 33.0046L107.254 36.2063V28.1516H107.221ZM148.799 30.0726C145.11 28.9268 142.651 28.4212 142.651 25.6914C142.651 23.5345 144.213 22.2876 147.138 22.2876C150.328 22.2876 153.22 23.2312 155.879 24.613C156.344 24.8489 156.809 24.6467 156.876 24.1749L157.773 15.3788C157.806 14.9407 157.64 14.57 157.208 14.4015C154.217 13.1882 150.661 12.3457 146.406 12.3457C136.269 12.3457 130.951 17.5694 130.951 25.7925C130.951 33.1731 135.272 36.577 143.714 38.9024C147.137 39.9808 148.367 40.8233 148.367 43.2161C148.367 45.5415 146.905 46.957 143.781 46.957C139.693 46.957 135.339 45.036 131.716 42.8791C131.084 42.5084 130.619 42.8117 130.619 43.4183V52.6525C130.619 53.2591 130.785 53.6635 131.45 54.0343C134.375 55.6856 138.828 57 144.379 57C153.851 57 160 51.9785 160 42.9802C160 35.1615 155.779 32.2295 148.799 30.0726ZM126.298 42.8454C123.573 44.5642 119.884 46.3167 115.098 46.3167C113.602 46.3167 111.874 46.0133 111.01 45.5078L119.285 41.2278C124.271 38.4642 127.395 34.7234 127.395 27.9157C127.395 27.5113 127.395 26.3318 127.395 25.8936C127.295 18.5131 121.246 12.3794 112.007 12.3794C101.537 12.3794 95.1558 18.749 95.1558 29.129V40.2504C95.1558 44.9349 96.8508 48.6757 99.1109 51.2033C102.401 54.8768 107.486 57 113.569 57C119.518 57 123.772 55.8878 126.73 54.0343C127.129 53.7647 127.495 53.3939 127.462 52.6525V43.4183C127.395 42.778 126.863 42.4747 126.298 42.8454Z" fill="#2B3547"/>
<path d="M96.153 52.1807C94.4912 49.9227 93.3279 47.5636 92.6632 44.5642C92.5634 44.0924 92.0649 43.8565 91.6328 44.0924C88.7745 45.6089 87.0462 46.0471 85.3844 45.6089C83.7226 45.1708 82.7255 43.4858 82.7255 40.4526V22.9953H90.1704C90.536 22.9953 90.8019 22.692 90.8019 22.355V13.4916C90.8019 13.1209 90.5028 12.8512 90.1704 12.8512H82.7255V-0.325973C82.7255 -0.696688 82.4264 -1 82.094 -1H71.1925C70.8269 -1 70.561 -0.730389 70.561 -0.325973V12.8512H64.9108C64.5452 12.8512 64.2793 13.1546 64.2793 13.4916V22.3213C64.2793 22.692 64.5784 22.9616 64.9108 22.9616H70.561V43.5869C70.561 53.8321 76.3773 56.9326 82.6922 56.9326C87.9768 56.9326 92.364 55.4834 95.9536 53.2591C96.2859 53.0569 96.3856 52.5177 96.153 52.1807Z" fill="#2B3547"/>
<path d="M20.3074 -0.0563965V0.0110065C20.3411 0.0110065 20.3411 0.0110065 20.3748 0.0110065L20.3074 -0.0563965Z" fill="#D0DF00"/>
<path d="M8.97388 48.743C12.1646 51.6751 16.02 53.8656 20.3075 55.0789V42.1039L8.97388 48.743Z" fill="#002E5D"/>
<path d="M28.1181 56.1573H32.3391V49.1475L21.6038 55.4159C23.6644 55.8877 25.858 56.1573 28.1181 56.1573Z" fill="#EF426F"/>
<path d="M32.3391 56.1573H44.3374L32.3391 49.1475V56.1573Z" fill="#002E5D"/>
<path d="M20.3074 55.0789C20.7394 55.2137 21.1383 55.3148 21.5704 55.4159L32.3057 49.1475L20.3074 42.1039V55.0789Z" fill="#0092C8"/>
<path d="M20.3074 42.104L8.30908 35.0941V48.1028C8.54174 48.305 8.74116 48.5409 8.97381 48.7431L20.3074 42.104Z" fill="#00C7B1"/>
<path d="M0 30.2074C0.265891 33.2068 0.963855 36.1051 2.06066 38.7338L8.3091 35.0941L0 30.2074Z" fill="#753BBD"/>
<path d="M20.3074 42.104L32.339 49.1476V35.0941L20.3074 42.104Z" fill="#D0DF00"/>
<path d="M32.3391 49.1475L44.3374 56.1573V42.1039L32.3391 49.1475Z" fill="#00C7B1"/>
<path d="M56.3357 56.1573V49.1475L44.3374 56.1573H56.3357Z" fill="#753BBD"/>
<path d="M44.3374 56.1573L56.3357 49.1475L44.3374 42.1039V56.1573Z" fill="#0092C8"/>
<path d="M32.3391 49.1476L44.3374 42.104L32.3391 35.0941V49.1476Z" fill="#002E5D"/>
<path d="M20.3074 28.0505V42.104L32.339 35.0941L20.3074 28.0505Z" fill="#EF426F"/>
<path d="M8.30908 21.0406V35.0941L20.3074 28.0505L8.30908 21.0406Z" fill="#D0DF00"/>
<path d="M8.30908 6.98718C5.45075 9.8181 3.19067 13.2893 1.72827 17.165L8.30908 21.0406V6.98718Z" fill="#0092C8"/>
<path d="M32.339 35.0941V21.0406L20.3074 28.0505L32.339 35.0941Z" fill="#0092C8"/>
<path d="M44.3374 42.104V28.0505L32.3391 35.0941L44.3374 42.104Z" fill="#753BBD"/>
<path d="M56.3357 49.1476V35.0941L44.3374 42.104L56.3357 49.1476Z" fill="#002E5D"/>
<path d="M44.3374 42.104L56.3357 35.0941L44.3374 28.0505V42.104Z" fill="#EF426F"/>
<path d="M8.30908 6.98718V21.0406L20.3074 13.9971L8.30908 6.98718Z" fill="#753BBD"/>
<path d="M32.339 6.98718L20.3074 13.9971L32.339 21.0406V6.98718Z" fill="#EF426F"/>
<path d="M32.3391 21.0406L44.3374 28.0505V13.9971L32.3391 21.0406Z" fill="#002E5D"/>
<path d="M44.3374 28.0505L56.3357 35.0941V27.545C56.3357 25.4218 56.1031 23.3661 55.7043 21.4114L44.3374 28.0505Z" fill="#753BBD"/>
<path d="M44.3374 28.0505L55.7043 21.4114C55.6378 21.1417 55.5713 20.8384 55.5048 20.5688L44.3374 14.0308V28.0505Z" fill="#0092C8"/>
<path d="M44.3374 13.9971L32.3391 6.98718V21.0406L44.3374 13.9971Z" fill="#D0DF00"/>
<path d="M32.339 6.98717L20.3738 -0.0227051C20.3406 -0.0227051 20.3406 -0.0227051 20.3074 -0.0227051V13.997L32.339 6.98717Z" fill="#D0DF00"/>
<path d="M55.5049 20.5351C54.6075 16.7269 52.9457 13.2556 50.7188 10.2562L44.3042 13.9971L55.5049 20.5351Z" fill="#002E5D"/>
<path d="M44.3374 3.98767V13.997L50.752 10.2561C48.9573 7.82963 46.7969 5.74014 44.3374 3.98767Z" fill="#00C7B1"/>
<path d="M40.9141 1.96565C38.2884 0.617594 35.3969 -0.292342 32.3391 -0.76416V6.98714L40.9141 1.96565Z" fill="#753BBD"/>
</g>
<defs>
<clipPath id="clip0">
<rect width="160" height="58" fill="white"/>
</clipPath>
</defs>
</svg>
