<svg width="10" height="10" viewBox="0 0 10 10" xmlns="http://www.w3.org/2000/svg">
    <path
        d="M6.875 1.875C6.875 0.839453 6.03555 0 5 0C3.96445 0 3.125 0.839453 3.125 1.875C3.125 2.91055 3.96445 3.75 5 3.75C6.03555 3.75 6.875 2.91055 6.875 1.875ZM4.5623 4.70898C3.40352 3.99961 1.52656 3.80469 0.582031 3.75098C0.264648 3.73301 0 3.9748 0 4.28008V8.63164C0 8.91152 0.226367 9.14492 0.517383 9.15996C1.37012 9.20469 3.09531 9.36856 4.2877 9.96914C4.4707 10.0613 4.6877 9.93574 4.6877 9.7373V4.93281C4.6875 4.8416 4.64238 4.75801 4.5623 4.70898ZM9.41797 3.75098C8.47363 3.80449 6.59648 3.99961 5.43789 4.70898C5.35781 4.75801 5.3127 4.84492 5.3127 4.93613V9.73672C5.3127 9.93574 5.53027 10.0615 5.71387 9.96914C6.90605 9.36914 8.63027 9.20527 9.48281 9.16055C9.77383 9.14531 10.0002 8.91191 10.0002 8.63203V4.28008C10 3.9748 9.73535 3.73301 9.41797 3.75098Z"
    />
</svg>